<svg version="1.1" id="Layer_1" xmlns="http://www.w3.org/2000/svg" xmlns:xlink="http://www.w3.org/1999/xlink" x="0px" y="0px"
	 width="100%" viewBox="0 0 2048 632" enable-background="new 0 0 2048 632" xml:space="preserve">
<path fill="#000000" opacity="1.000000" stroke="none" 
	d="
M1481.000000,633.000000 
	C987.333313,633.000000 494.166656,633.000000 1.000000,633.000000 
	C1.000000,422.333344 1.000000,211.666672 1.000000,1.000000 
	C683.666687,1.000000 1366.333374,1.000000 2049.000000,1.000000 
	C2049.000000,211.666672 2049.000000,422.333344 2049.000000,633.000000 
	C1859.833374,633.000000 1670.666626,633.000000 1481.000000,633.000000 
M561.704895,286.694366 
	C561.831848,286.819458 561.958740,286.944580 562.013611,287.839935 
	C559.960327,292.803833 558.521851,298.145996 555.742676,302.663269 
	C545.970886,318.546234 535.771301,334.166870 525.650269,349.832977 
	C523.839661,352.635559 523.310852,355.171417 526.656799,356.839752 
	C529.613647,358.314117 532.691345,359.469635 535.010803,355.257446 
	C538.237366,349.398010 542.064880,343.871124 545.335266,338.033875 
	C554.660461,321.389435 569.055725,309.368195 582.840271,296.828430 
	C586.684265,293.331573 591.238464,290.539978 595.720947,287.847931 
	C598.517639,286.168304 602.338318,282.730560 604.851868,286.082062 
	C606.277527,287.982941 604.768372,292.941467 603.344788,295.934967 
	C600.793823,301.298889 597.309509,306.218933 593.882080,311.874329 
	C595.651611,311.874329 597.092346,312.264343 598.187073,311.813751 
	C608.690735,307.490662 618.243652,292.740723 615.854675,281.625275 
	C615.557922,280.244476 613.587769,278.219055 612.398926,278.223114 
	C608.864990,278.235077 605.058533,278.444214 601.851624,279.769501 
	C590.566895,284.433136 581.897888,292.920776 572.802612,300.725372 
	C569.032471,303.960480 565.404297,307.361115 561.711609,310.686493 
	C561.281982,309.144989 561.568665,308.249847 562.029175,307.455536 
	C569.623291,294.357544 577.169006,281.212311 579.392517,265.918213 
	C579.693176,263.850464 578.246643,261.528717 577.609131,259.324585 
	C575.645386,260.144714 572.966553,260.423370 571.856201,261.889709 
	C568.911072,265.779114 567.001099,270.454834 564.040527,274.329712 
	C554.374939,286.980194 544.416992,299.407043 534.589355,311.933929 
	C532.224548,314.948242 529.928955,318.016724 527.601501,321.060272 
	C528.084045,321.485229 528.566589,321.910187 529.049133,322.335114 
	C530.408691,321.348877 532.019775,320.579865 533.088501,319.342407 
	C542.555115,308.381744 551.925476,297.338074 561.704895,286.694366 
M658.303833,272.280457 
	C658.430603,272.400146 658.557434,272.519836 658.233398,273.167877 
	C644.081787,281.564667 631.308960,291.532928 622.730225,305.886566 
	C620.820251,309.082275 619.389160,311.409729 615.968689,309.319824 
	C615.968689,312.667694 616.511108,315.867828 615.865784,318.807220 
	C614.013672,327.244019 611.417175,335.519135 609.618774,343.965393 
	C608.137817,350.920807 611.945251,356.934113 618.751587,358.985077 
	C628.571350,361.944122 637.667664,358.477448 646.376465,354.729309 
	C659.415100,349.117645 671.081604,341.082489 681.678894,331.684906 
	C686.624207,327.299500 690.769653,322.012085 695.277649,317.133514 
	C694.834229,316.614685 694.390869,316.095825 693.947449,315.576996 
	C692.251404,316.615692 690.306274,317.394440 688.903015,318.738770 
	C683.312866,324.094238 678.205688,329.993683 672.336304,335.008972 
	C662.830627,343.131287 652.211914,349.490143 639.898254,352.589935 
	C628.588135,355.437012 621.050964,349.596710 622.062866,338.560089 
	C622.312866,335.832916 623.220276,333.163544 623.854858,330.474518 
	C625.629211,322.955505 627.987854,316.019897 637.832031,316.620453 
	C638.101257,316.636871 638.370605,316.220612 638.675842,316.136353 
	C655.618896,311.457214 670.453613,302.966431 683.166077,290.921600 
	C688.056274,286.288208 691.565796,280.524475 692.910339,273.752899 
	C694.300476,266.751587 689.529602,261.001617 682.245972,261.058685 
	C678.814514,261.085541 675.164795,261.098572 672.006287,262.221527 
	C665.735168,264.451141 658.411377,265.051758 653.807373,272.453888 
	C655.706482,272.206848 656.816589,272.062439 658.303833,272.280457 
M1675.701538,322.692444 
	C1675.829468,322.818298 1675.957397,322.944183 1675.988159,323.796082 
	C1671.734985,333.010590 1667.407837,342.192078 1663.273682,351.459686 
	C1662.026245,354.256134 1658.568359,358.171356 1662.362183,360.102692 
	C1665.969604,361.939209 1667.092773,356.798279 1668.904297,354.321503 
	C1674.882812,346.148010 1679.993774,337.151337 1686.948486,329.924469 
	C1697.567505,318.889984 1709.207397,308.787109 1720.887939,298.845703 
	C1727.105347,293.553955 1734.319214,289.432861 1741.083252,284.783325 
	C1741.810669,286.577026 1741.711914,287.366516 1741.418457,288.075439 
	C1733.349365,307.569031 1725.223877,327.039398 1717.241455,346.568268 
	C1716.571411,348.207703 1716.839722,350.230774 1716.671997,352.075562 
	C1718.587524,351.735138 1720.833008,351.925629 1722.367432,350.972015 
	C1737.209961,341.748474 1749.732422,329.868652 1760.866455,316.491272 
	C1761.698364,315.491821 1761.649902,313.759674 1762.249512,311.446686 
	C1751.438110,320.682953 1741.557617,329.123993 1731.677124,337.565002 
	C1731.198730,337.139435 1730.720459,336.713837 1730.242065,336.288239 
	C1734.614258,327.930634 1739.050415,319.605652 1743.342163,311.206818 
	C1748.287109,301.529327 1753.231934,291.846924 1757.875854,282.024353 
	C1758.872070,279.917389 1759.669189,276.309357 1758.596069,274.995880 
	C1757.324463,273.439789 1753.925903,273.166321 1751.454590,273.182343 
	C1749.266846,273.196533 1747.019531,274.204285 1744.913940,275.058258 
	C1730.910156,280.738251 1719.812256,290.638977 1708.974121,300.681458 
	C1700.461914,308.568848 1692.749268,317.319031 1684.298340,325.307648 
	C1684.170410,325.181763 1684.042480,325.055847 1684.009521,324.214508 
	C1696.569580,303.630798 1709.129761,283.047119 1722.021973,261.919189 
	C1720.231079,261.503540 1718.410889,260.473022 1716.944458,260.843170 
	C1709.508545,262.720184 1702.084595,264.734711 1694.860840,267.280914 
	C1693.551880,267.742310 1692.212402,271.112610 1692.566406,272.784302 
	C1694.179199,280.399750 1694.602905,287.617401 1689.920288,294.460358 
	C1688.074341,297.157776 1686.434204,300.133057 1685.394043,303.215820 
	C1683.303223,309.413025 1680.264282,314.617859 1674.928223,318.764709 
	C1668.442261,323.805023 1662.792236,329.920532 1656.311768,334.968964 
	C1651.979370,338.344147 1647.004761,341.068054 1641.966553,343.285919 
	C1639.708130,344.280029 1635.665283,344.333038 1634.140625,342.941437 
	C1632.812378,341.729095 1633.198853,337.655853 1634.007935,335.242401 
	C1639.511719,318.824127 1649.530029,305.106812 1660.480591,291.968323 
	C1663.518311,288.323486 1666.491943,284.566467 1668.939575,280.524475 
	C1669.663452,279.328949 1669.096558,275.965851 1668.070068,275.351013 
	C1664.721436,273.345245 1658.668457,275.502838 1656.144897,278.752441 
	C1645.984619,291.835602 1635.739624,304.853149 1625.620361,317.967773 
	C1624.672607,319.196259 1624.387207,320.935974 1623.794312,322.438293 
	C1624.185059,322.689117 1624.575928,322.939972 1624.966797,323.190796 
	C1626.746948,321.568970 1628.527222,319.947174 1630.685425,318.688873 
	C1630.811646,318.809784 1630.937866,318.930695 1630.966431,319.788727 
	C1629.140747,324.519043 1627.058228,329.168640 1625.541382,333.996033 
	C1622.110229,344.916656 1627.803345,351.913818 1638.520264,349.843506 
	C1641.641724,349.240509 1644.967285,347.894562 1647.414062,345.917419 
	C1656.887329,338.262390 1666.043945,330.215302 1675.701538,322.692444 
M1503.287598,333.296844 
	C1503.163086,333.174408 1503.038574,333.051971 1503.009888,332.223114 
	C1513.876343,315.123444 1524.767212,298.039246 1535.591797,280.913177 
	C1538.265991,276.682281 1541.396484,273.170319 1546.224365,271.219849 
	C1548.151733,270.441132 1549.636963,268.567596 1551.323364,267.192413 
	C1551.089600,266.804291 1550.855835,266.416168 1550.622070,266.028046 
	C1548.537354,266.551819 1545.825439,268.177979 1544.475708,267.409973 
	C1538.379883,263.941437 1532.871216,265.951874 1528.949585,269.965668 
	C1524.447632,274.573364 1519.202148,276.617157 1513.434204,277.753418 
	C1508.980347,278.630798 1507.329224,281.240265 1507.037842,285.172455 
	C1505.806519,301.781952 1500.822998,317.252228 1493.020508,331.873077 
	C1489.391479,338.673248 1485.599365,345.386841 1482.014771,352.209869 
	C1481.493042,353.203033 1481.719116,354.589111 1481.598999,355.793335 
	C1482.943970,355.915070 1484.288330,356.131836 1485.634155,356.141815 
	C1490.928101,356.181122 1491.320435,350.817291 1494.247559,348.234833 
	C1503.151489,340.378998 1512.153442,332.627106 1520.867432,324.564728 
	C1533.389771,312.978790 1545.689819,301.152588 1558.097290,289.442261 
	C1558.525391,289.038239 1559.088501,288.777405 1560.364990,287.941437 
	C1555.069946,305.001190 1544.254028,318.835663 1540.442627,335.886536 
	C1552.294312,332.687195 1558.317017,322.461395 1566.346191,314.943024 
	C1574.515747,307.293365 1581.829102,298.729492 1590.183838,289.858185 
	C1589.092285,294.669189 1588.092285,298.441071 1587.394409,302.268005 
	C1585.089722,314.908630 1584.846436,327.508636 1589.086792,339.833893 
	C1591.190063,345.947113 1595.232910,350.727692 1601.761353,351.827240 
	C1608.514038,352.964539 1615.262695,351.837219 1621.309814,348.236542 
	C1622.503174,347.525970 1623.351929,346.236664 1624.359497,345.214264 
	C1624.125000,344.804810 1623.890503,344.395355 1623.656006,343.985901 
	C1621.668213,344.362701 1619.620483,344.547821 1617.703003,345.148865 
	C1608.642822,347.988739 1602.540405,345.063782 1600.156128,336.048615 
	C1597.644165,326.550385 1597.680054,316.745941 1599.541138,307.231110 
	C1601.315430,298.159637 1604.426392,289.349640 1607.004517,280.230621 
	C1601.789185,277.435822 1596.530884,279.040436 1592.151733,284.638641 
	C1590.241333,284.871307 1588.286255,285.341431 1587.053833,286.549011 
	C1578.055786,295.365326 1569.203125,304.329834 1560.304565,313.247498 
	C1559.803345,312.849579 1559.302124,312.451691 1558.800903,312.053802 
	C1559.445068,310.634338 1559.927734,309.110657 1560.763184,307.814667 
	C1563.430054,303.678894 1566.457520,299.760559 1568.918579,295.510895 
	C1572.168701,289.899078 1575.176758,284.130371 1577.959961,278.272797 
	C1579.205933,275.650360 1578.090088,273.858124 1575.007202,272.847382 
	C1568.789062,270.808807 1563.251343,272.575592 1559.090088,276.648132 
	C1551.191772,284.377808 1544.125244,292.949371 1536.506714,300.975159 
	C1526.515259,311.500763 1516.335327,321.847656 1506.192749,332.228638 
	C1505.540649,332.895874 1504.512451,333.195465 1503.287598,333.296844 
M1436.718872,312.684784 
	C1436.836304,312.808960 1436.953735,312.933105 1437.000854,313.817688 
	C1436.425171,315.339661 1435.819214,316.850922 1435.278809,318.385345 
	C1431.912231,327.945251 1427.553345,337.255219 1427.996094,347.766724 
	C1428.306641,355.136902 1432.122192,358.683868 1439.325806,359.072327 
	C1446.183105,359.442108 1452.399902,357.254333 1457.144653,353.039612 
	C1466.861084,344.408539 1475.918945,335.018738 1485.002197,325.701752 
	C1488.170654,322.451721 1490.615356,318.496063 1493.390625,314.862701 
	C1492.776489,314.350006 1492.162476,313.837311 1491.548462,313.324615 
	C1487.044189,318.166321 1482.398682,322.885437 1478.066528,327.876495 
	C1470.355225,336.760895 1462.095703,345.019257 1451.852173,350.952057 
	C1448.745605,352.751251 1444.549316,356.036469 1441.695312,352.507263 
	C1439.815552,350.182770 1439.975830,345.292633 1440.745239,341.896179 
	C1444.636841,324.715485 1452.452148,309.050232 1462.227295,294.652008 
	C1468.620239,285.235657 1477.484009,277.533813 1484.692383,268.620453 
	C1489.338745,262.875183 1496.283813,257.693298 1493.156738,248.481552 
	C1493.001709,248.024811 1493.484131,247.235992 1493.851562,246.735168 
	C1498.603027,240.257736 1503.269409,233.713058 1508.185913,227.362366 
	C1522.237671,209.211441 1536.437500,191.174927 1550.468140,173.007812 
	C1552.842651,169.933258 1554.666992,166.433838 1557.038574,162.664841 
	C1546.642700,161.139542 1539.094482,163.594498 1534.593262,169.897629 
	C1520.311890,189.895996 1505.937866,209.836151 1492.103760,230.142288 
	C1485.754883,239.461258 1480.007324,247.313263 1467.406982,250.360443 
	C1443.010010,256.260406 1424.408569,272.949921 1406.237671,289.403961 
	C1395.709229,298.937469 1386.583008,309.802734 1379.986572,322.535828 
	C1375.943481,330.340027 1372.858765,338.528076 1374.187378,347.473724 
	C1374.526123,349.754181 1376.651489,352.433563 1378.711670,353.657623 
	C1383.175415,356.309570 1388.333130,355.139832 1392.265747,352.697266 
	C1400.058105,347.857330 1407.915771,342.780426 1414.577637,336.551514 
	C1422.484741,329.158081 1429.160889,320.448090 1436.718872,312.684784 
M1011.701233,324.692383 
	C1011.829163,324.818115 1011.957092,324.943848 1011.971924,325.834930 
	C1010.649231,332.536224 1008.658936,339.190918 1008.186829,345.951599 
	C1007.690613,353.058716 1012.369080,358.753052 1018.371277,358.447998 
	C1022.709412,358.227509 1027.408325,356.501801 1031.126221,354.150543 
	C1048.371094,343.244202 1061.610840,327.892792 1075.246582,313.048889 
	C1080.466797,307.366058 1085.232300,301.263550 1090.164917,295.319214 
	C1092.902588,292.019989 1095.557861,288.652283 1098.250244,285.315430 
	C1098.812500,285.652924 1099.374756,285.990417 1099.936890,286.327911 
	C1095.371826,295.292755 1091.331177,304.576782 1086.116821,313.146545 
	C1078.555542,325.573517 1070.147827,337.485565 1062.096558,349.614197 
	C1060.796631,351.572327 1060.038330,353.359650 1061.976929,355.552856 
	C1065.640137,359.697357 1068.884277,358.997314 1072.185913,353.604034 
	C1079.978638,340.874634 1086.649780,327.325165 1097.679443,316.868164 
	C1105.732910,309.232819 1113.815063,301.604523 1122.265015,294.420685 
	C1126.338135,290.957855 1131.122925,288.208344 1135.891724,285.723907 
	C1140.204712,283.477020 1142.971069,285.634918 1141.850342,290.324615 
	C1141.071045,293.586060 1139.376831,296.695892 1137.715332,299.662903 
	C1135.532715,303.560455 1132.980347,307.251068 1130.587036,311.030640 
	C1130.885254,311.412262 1131.183472,311.793854 1131.481689,312.175446 
	C1133.255859,311.660828 1135.264404,311.518036 1136.765869,310.570984 
	C1146.076660,304.697845 1151.625488,296.259460 1152.911499,285.282745 
	C1153.434692,280.816589 1150.669312,278.404480 1146.297241,277.926300 
	C1140.519043,277.294312 1135.800415,279.866364 1131.719604,283.014740 
	C1121.692261,290.750946 1112.117676,299.073364 1102.338135,307.132355 
	C1100.967896,308.261536 1099.469482,309.235352 1098.030273,310.281097 
	C1098.141235,307.856689 1098.904419,306.236938 1099.818970,304.707611 
	C1106.740601,293.131470 1112.682495,281.133179 1115.572266,267.845551 
	C1116.236572,264.790619 1117.229980,261.206665 1113.606445,259.445862 
	C1109.654663,257.525482 1108.325439,261.631744 1106.150635,263.607941 
	C1105.818237,263.910034 1105.763550,264.502991 1105.538208,264.939606 
	C1097.102661,281.284149 1085.887085,295.612671 1073.446899,309.037720 
	C1067.821167,315.108826 1062.159302,321.151703 1056.349976,327.045807 
	C1050.356445,333.126587 1044.358398,339.229950 1037.981567,344.894806 
	C1034.464600,348.019196 1030.336914,350.584595 1026.166626,352.805145 
	C1022.659668,354.672516 1019.794556,352.927277 1019.134216,348.983246 
	C1018.870850,347.409973 1019.022827,345.624542 1019.496582,344.093781 
	C1022.390320,334.744202 1024.713745,325.125305 1028.626831,316.210480 
	C1032.438110,307.527466 1036.089111,298.555145 1045.168701,293.036682 
	C1051.829468,288.988251 1057.286499,283.168274 1060.089966,275.290466 
	C1063.574097,265.499847 1056.857666,262.058960 1050.441406,263.211395 
	C1042.164673,264.697968 1033.588135,266.515350 1026.135132,270.201172 
	C1006.150391,280.084442 990.473022,295.469696 976.240051,312.381317 
	C972.473511,316.856720 968.969727,321.628754 964.741150,325.625366 
	C952.817505,336.895050 938.596130,344.868286 923.925049,351.800903 
	C908.568176,359.057648 892.637756,365.112671 875.683044,367.577240 
	C865.845581,369.007233 855.905273,369.729889 845.788635,370.794250 
	C845.889221,369.151001 845.793640,368.755737 845.946045,368.522797 
	C847.638062,365.937439 849.368530,363.377167 851.088745,360.810211 
	C865.979919,338.588745 879.266479,315.443573 891.227539,291.519226 
	C893.653381,286.667236 896.606384,282.514404 901.546692,279.163391 
	C907.126343,275.378662 911.406799,269.478699 915.638855,264.022797 
	C916.992615,262.277557 916.392883,259.017029 916.686951,256.449799 
	C914.398254,256.430634 912.109314,256.424133 909.821350,256.372253 
	C909.599548,256.367218 909.384033,256.081451 909.148193,255.913589 
	C915.845520,239.106140 922.480469,222.267807 929.406128,205.549927 
	C929.812866,204.568008 932.964233,203.686249 934.162781,204.234528 
	C943.070801,208.309601 952.120544,212.232254 960.519287,217.223343 
	C970.930420,223.410309 980.753296,230.586380 990.838745,237.322464 
	C998.899658,242.706390 1002.657837,238.848602 1003.691772,232.949234 
	C1005.219421,224.233276 1007.557495,215.613495 1004.312073,206.279495 
	C1001.231873,197.420364 996.637573,190.659088 988.732422,185.930054 
	C978.869568,180.029877 967.935364,178.975739 956.825928,179.058472 
	C950.755066,179.103668 944.688538,179.737137 938.562988,180.108780 
	C940.014709,168.501617 945.272583,157.916595 943.574097,145.150711 
	C941.980591,146.537582 940.423767,147.215271 940.169861,148.221741 
	C938.298340,155.639175 936.338562,163.064316 935.085205,170.599899 
	C933.638489,179.298370 931.442932,182.229095 922.995361,184.517731 
	C921.115601,185.026978 919.296387,185.775284 917.403687,186.218811 
	C909.630737,188.040222 902.693970,193.709137 893.920288,191.066040 
	C891.292297,190.274353 888.362244,189.830887 885.650513,190.084045 
	C873.397522,191.227859 861.068726,192.076294 848.965210,194.173355 
	C834.293884,196.715302 820.074646,200.990845 807.744019,210.002960 
	C800.196838,215.519073 795.717102,225.227249 798.062439,232.977219 
	C798.701294,235.088501 801.023254,236.690475 802.572693,238.526215 
	C804.062744,236.781418 806.473633,235.226105 806.878601,233.258041 
	C808.390564,225.909790 812.169189,220.121170 817.933105,215.680374 
	C821.675720,212.796890 825.638550,209.860001 829.977539,208.156189 
	C841.071594,203.799759 852.205322,199.134583 863.757019,196.483871 
	C872.860046,194.395065 882.609070,195.121460 892.071228,194.597473 
	C892.173767,195.113678 892.276367,195.629883 892.378906,196.146103 
	C890.561646,197.107300 888.694763,197.985886 886.935547,199.043579 
	C878.087158,204.363510 868.652039,208.942566 860.570435,215.251663 
	C845.748413,226.822861 831.458801,239.051056 818.950867,253.318100 
	C808.628296,265.092407 799.484314,277.544006 791.952026,291.221161 
	C785.405273,303.108704 781.515381,315.862152 778.888550,329.159454 
	C776.668030,340.400116 778.574402,350.802856 784.099487,360.412720 
	C790.444092,371.447815 801.022034,376.989624 813.005005,379.921692 
	C818.124207,381.174347 823.415283,381.725098 828.628235,382.594788 
	C828.889099,383.165924 829.149963,383.737091 829.410889,384.308228 
	C823.058472,390.248199 817.209961,396.888062 810.209656,401.928192 
	C803.427246,406.811493 795.460754,410.050140 788.014343,414.011139 
	C788.119385,414.645691 788.224426,415.280212 788.329407,415.914734 
	C791.357056,415.667938 794.590027,416.022736 797.377014,415.071167 
	C810.023132,410.753296 818.789429,401.336273 827.162598,391.517792 
	C831.302734,386.663086 835.355774,381.931244 842.631775,381.923004 
	C847.227478,381.917786 851.885803,381.547546 856.406128,380.731720 
	C871.783142,377.956390 887.048950,374.427338 901.280029,367.899231 
	C915.855652,361.213074 930.192017,353.931885 944.235840,346.190491 
	C951.487244,342.193237 957.876465,336.632050 965.033569,331.506592 
	C964.041809,335.468994 963.146484,338.911316 962.321533,342.370392 
	C960.617371,349.516205 964.126587,354.246399 971.353699,353.892181 
	C974.868469,353.719940 978.586365,352.980408 981.766724,351.524445 
	C994.513855,345.688934 1002.818726,334.861084 1011.701233,324.692383 
M1245.990723,345.512238 
	C1247.307861,344.526489 1248.716797,343.641418 1249.927490,342.538727 
	C1258.117798,335.078552 1266.218140,327.518707 1274.471802,320.129852 
	C1275.991699,318.769165 1278.010620,317.318329 1279.913696,317.141571 
	C1289.942017,316.210052 1300.021851,315.841431 1310.054565,314.947876 
	C1318.293091,314.214081 1326.490723,313.019379 1333.851196,312.132080 
	C1331.917358,322.789490 1330.003906,333.842407 1327.888184,344.856445 
	C1325.556763,356.992218 1327.972656,368.346527 1335.570679,377.711578 
	C1345.877197,390.414795 1355.066772,394.286591 1370.384399,388.736725 
	C1379.453003,385.450958 1385.972046,378.378448 1391.942627,371.015961 
	C1393.697388,368.851807 1394.948486,366.279144 1396.430420,363.893677 
	C1395.943726,363.551422 1395.457153,363.209167 1394.970581,362.866913 
	C1393.094727,364.963409 1391.449219,367.340546 1389.300171,369.103912 
	C1382.707520,374.513489 1376.463379,380.696655 1369.059204,384.669556 
	C1361.671143,388.633789 1355.271240,387.499908 1351.795166,380.011169 
	C1349.709595,375.518158 1348.173096,370.281433 1348.202759,365.389923 
	C1348.281738,352.345856 1348.602417,339.215515 1350.214844,326.292633 
	C1351.891357,312.854065 1354.885864,299.549408 1357.855713,286.309906 
	C1362.323608,266.391388 1367.256348,246.576813 1372.029419,226.727158 
	C1372.907227,223.076477 1374.228760,219.510559 1374.808716,215.821167 
	C1375.035645,214.378159 1373.784912,212.702789 1373.207275,211.133240 
	C1371.875488,211.928986 1370.412476,212.574326 1369.261963,213.577866 
	C1368.592651,214.161697 1368.354004,215.296173 1368.041138,216.223221 
	C1362.656982,232.173950 1357.381958,248.162186 1351.895020,264.077393 
	C1346.846069,278.721802 1341.573608,293.289154 1336.489624,307.636780 
	C1319.639648,308.291016 1303.180054,308.930084 1286.138062,309.591797 
	C1287.378784,307.773560 1287.902832,306.740204 1288.664062,305.929810 
	C1300.036865,293.824432 1311.951294,282.182892 1322.703369,269.551239 
	C1335.025269,255.075256 1346.527344,239.882034 1358.004639,224.712265 
	C1368.652710,210.638412 1377.472168,195.566055 1381.139404,177.937500 
	C1382.769531,170.100937 1379.793213,162.376648 1373.026733,158.585159 
	C1367.059814,155.241653 1362.296021,155.484024 1358.784668,159.757553 
	C1360.819946,160.655975 1362.868896,161.255768 1364.556763,162.391785 
	C1366.216553,163.508896 1368.550659,165.035248 1368.756104,166.619614 
	C1369.237427,170.331650 1369.703735,174.673019 1368.253784,177.894196 
	C1363.253174,189.002731 1358.539185,200.506302 1351.678101,210.453735 
	C1338.929321,228.936874 1325.144043,246.751846 1311.034424,264.235046 
	C1299.447876,278.591949 1286.895630,292.182129 1274.512695,305.878235 
	C1268.616577,312.399506 1268.343994,312.153015 1259.176147,311.760284 
	C1262.107422,308.347168 1264.740234,304.682831 1267.982300,301.675171 
	C1271.206055,298.684570 1275.123047,296.456329 1278.591431,293.711182 
	C1284.407227,289.108124 1290.409424,284.676422 1295.766724,279.577515 
	C1300.431274,275.137878 1299.740601,272.988281 1293.730103,271.109100 
	C1299.881836,263.006378 1306.043579,255.121048 1311.953369,247.051178 
	C1320.179565,235.818115 1328.690918,224.750198 1336.186035,213.039307 
	C1342.245239,203.572098 1347.004028,193.270294 1352.264404,183.298965 
	C1352.682495,182.506378 1352.513306,181.403839 1352.616943,180.445312 
	C1352.091187,180.197601 1351.565552,179.949890 1351.039917,179.702179 
	C1330.830933,211.889908 1311.060913,244.394073 1286.933472,272.690643 
	C1284.416870,270.306030 1282.589111,267.249115 1280.967407,267.354767 
	C1278.660156,267.505066 1275.768799,269.508698 1274.453003,271.567932 
	C1272.382568,274.808441 1271.151733,278.676575 1270.049194,282.421448 
	C1268.672485,287.098328 1268.661743,292.384247 1266.449829,296.552094 
	C1264.085083,301.007935 1259.944946,304.563477 1256.382324,308.325012 
	C1254.422485,310.394409 1252.286133,313.268311 1249.835571,313.741882 
	C1235.250488,316.560608 1220.913330,320.064911 1207.259277,326.034546 
	C1196.015381,330.950470 1184.854980,336.128265 1176.333862,345.279022 
	C1169.505615,352.611786 1164.663330,360.830963 1169.210571,371.401642 
	C1170.040771,373.331696 1171.103882,375.161560 1172.176270,377.266907 
	C1166.343506,380.710876 1160.971313,384.599335 1155.032349,387.186981 
	C1149.149536,389.750214 1142.670532,390.924866 1136.508057,392.881653 
	C1134.924194,393.384521 1133.547241,394.539001 1132.075317,395.394135 
	C1133.536011,396.261871 1135.303955,398.158661 1136.407227,397.829285 
	C1143.236938,395.790375 1150.141235,393.733917 1156.583984,390.742218 
	C1163.076050,387.727631 1169.060303,383.619019 1175.332520,379.951447 
	C1177.390259,381.909302 1179.307617,383.733582 1181.431030,385.753906 
	C1166.930664,395.116699 1151.686646,402.595123 1134.018555,403.895538 
	C1128.058960,404.334229 1125.041626,400.880402 1126.419800,395.084015 
	C1126.628662,394.205383 1126.662109,393.284973 1126.804199,392.166748 
	C1121.886719,394.711395 1119.574219,398.643402 1121.294434,403.975616 
	C1121.998047,406.157104 1125.629883,408.450104 1128.182861,408.789734 
	C1137.484863,410.027374 1146.706543,408.415558 1155.267578,404.790131 
	C1165.241821,400.566254 1174.900146,395.576355 1184.578979,390.687714 
	C1187.354614,389.285736 1189.607788,389.383362 1192.293457,390.726959 
	C1200.281982,394.723633 1208.624512,397.130951 1217.932739,394.913971 
	C1211.312500,388.288727 1200.890137,391.051849 1193.393799,385.312195 
	C1199.400269,381.279236 1205.547974,377.605988 1211.186646,373.270599 
	C1222.759155,364.372589 1234.058838,355.119781 1245.990723,345.512238 
M472.921265,220.289368 
	C464.628876,235.369324 456.336487,250.449295 448.044098,265.529266 
	C447.437164,265.491852 446.830261,265.454437 446.223358,265.417023 
	C445.919556,264.821289 445.613892,264.226532 445.312195,263.629730 
	C442.988525,259.033356 439.922791,258.591064 437.561737,263.129852 
	C435.666504,266.773224 434.281769,271.107788 434.192719,275.169037 
	C434.045471,281.883606 434.213348,288.356720 429.119110,293.624603 
	C427.641815,295.152252 426.387238,296.908508 425.126221,298.630066 
	C411.966705,316.595459 398.437927,334.284607 380.976379,348.364288 
	C373.880615,354.085815 366.336182,359.598907 356.315247,359.073120 
	C355.229462,359.016144 354.097900,359.831512 352.987579,360.242279 
	C352.947937,360.923553 352.908295,361.604828 352.868652,362.286102 
	C355.274536,362.809753 358.002411,364.322968 360.023926,363.665222 
	C365.364685,361.927521 371.169373,360.195129 375.399414,356.752625 
	C384.936829,348.990967 394.182831,340.705292 402.529694,331.690491 
	C412.059692,321.397888 420.254303,309.882141 429.465271,299.276550 
	C436.510345,291.164856 444.233551,283.642090 451.655090,275.857330 
	C452.179535,276.282837 452.703949,276.708313 453.228394,277.133820 
	C452.525146,278.538391 452.000488,280.072723 451.089630,281.326508 
	C445.119751,289.544250 439.121613,297.742676 433.029449,305.870056 
	C418.061646,325.838196 402.857452,345.599243 382.687469,360.803406 
	C367.838867,371.996246 351.861938,380.224335 332.546783,377.813171 
	C328.309937,377.284271 323.729034,375.166077 320.464050,372.409088 
	C317.144775,369.606171 318.660889,358.223450 321.740112,354.763733 
	C329.287354,346.283844 338.923920,342.515411 350.072327,341.947327 
	C352.031799,341.847504 353.956665,341.069763 355.897522,340.605072 
	C355.729401,339.801666 355.561249,338.998230 355.393127,338.194824 
	C348.639313,339.146606 341.701172,339.427673 335.178345,341.220062 
	C327.031097,343.458801 319.224213,347.334198 314.261780,354.470978 
	C310.850800,359.376556 307.132019,364.632690 310.175964,371.688995 
	C313.834198,380.169434 320.915955,383.881805 328.984283,384.797485 
	C343.595337,386.455780 358.232147,385.045410 371.066437,377.232239 
	C382.638672,370.187347 394.450806,362.974487 404.339172,353.862732 
	C417.831085,341.430389 429.650574,327.174255 442.076050,313.598450 
	C446.025787,309.283051 449.621277,304.643341 453.326874,300.214264 
	C455.137482,302.660828 456.700623,304.773010 459.043884,307.939270 
	C460.947052,298.008759 462.076233,294.581879 465.740448,293.227356 
	C474.128082,290.126709 482.623444,287.026001 491.341827,285.197083 
	C499.351135,283.516937 507.697174,283.271362 515.918274,282.825500 
	C522.475159,282.469971 529.067322,282.765625 535.643799,282.769592 
	C539.935120,282.772186 544.226440,282.770081 548.517700,282.770081 
	C548.526672,281.949097 548.535645,281.128143 548.544617,280.307159 
	C523.348511,272.226501 497.582153,273.082611 471.059509,276.910431 
	C471.960785,275.415131 472.535675,274.265076 473.287537,273.245544 
	C478.435516,266.264435 483.610291,259.303040 488.796295,252.350082 
	C496.347992,242.225357 503.881622,232.086670 511.533630,222.038193 
	C512.262512,221.080978 513.894226,220.023819 514.905334,220.196014 
	C521.795532,221.369156 528.623108,222.903839 535.487305,224.237534 
	C548.068665,226.682007 560.636963,229.597382 573.569275,226.973907 
	C583.326965,224.994400 592.332092,221.981644 596.285950,211.336472 
	C598.991638,204.051712 598.696594,200.749023 593.530762,197.134277 
	C593.325562,198.862946 592.982788,200.241302 593.030945,201.605865 
	C593.236938,207.444260 590.396729,211.863373 585.298584,213.626022 
	C579.034790,215.791718 572.249878,217.974762 565.783875,217.724991 
	C550.573120,217.137497 535.418030,215.108887 520.240417,213.663391 
	C520.026367,213.077805 519.812317,212.492203 519.598206,211.906601 
	C522.320129,208.732941 525.041443,205.558777 527.764099,202.385727 
	C538.730957,189.604721 550.752686,177.978729 567.160767,172.734238 
	C571.400330,171.379150 576.825195,172.882217 581.496094,173.971069 
	C585.990845,175.018829 583.147278,179.348129 584.039612,182.078445 
	C584.356812,183.048721 585.096802,183.880814 585.643799,184.775986 
	C586.456421,184.091187 587.696106,183.563599 588.015076,182.697083 
	C590.973999,174.657654 588.328613,167.451218 578.475403,166.112885 
	C564.672485,164.238098 552.287292,168.812592 540.634644,175.885513 
	C527.274963,183.994507 517.083557,195.654953 506.022125,206.357300 
	C504.731598,207.605911 502.606140,209.035950 501.090698,208.819702 
	C495.691864,208.049286 490.389252,206.604050 484.696167,205.335373 
	C486.650482,197.328369 491.893402,190.609909 490.962311,182.260300 
	C487.395721,188.020355 484.534973,194.013779 481.971008,200.131577 
	C480.786865,202.957031 479.272430,204.475723 476.030060,203.947433 
	C463.420715,201.892899 450.807892,199.855911 438.178192,197.931366 
	C418.475647,194.928986 398.784088,193.828415 379.446289,200.029419 
	C368.610779,203.504013 359.329498,209.249405 353.102753,219.310181 
	C347.364716,228.581299 346.238617,238.901016 348.641693,248.768860 
	C351.431641,260.225311 359.682526,268.605042 369.729950,274.858215 
	C370.816315,275.534332 372.262543,275.632141 373.541870,275.998199 
	C373.866272,275.543457 374.190704,275.088684 374.515106,274.633942 
	C372.975220,272.888611 371.525787,271.052460 369.880035,269.413452 
	C361.965454,261.531158 357.237885,252.558624 357.886932,240.864502 
	C358.668091,226.790665 365.516663,216.806320 377.265106,210.030197 
	C385.954071,205.018661 395.676880,203.050964 405.674347,203.020782 
	C419.055237,202.980392 432.413666,202.762222 445.651642,205.837738 
	C455.606232,208.150452 465.814911,209.369537 476.484528,211.172455 
	C475.161072,214.456421 474.135498,217.001221 472.921265,220.289368 
M720.655151,316.130524 
	C721.920776,315.837067 723.211060,315.622681 724.448303,315.238068 
	C738.079468,311.000519 750.472900,304.298981 761.243713,295.046265 
	C768.749146,288.598694 775.712097,281.406189 775.069885,270.090057 
	C774.817444,265.641937 772.883118,262.945923 768.730835,261.886230 
	C757.225037,258.949829 747.545105,263.717590 738.187317,269.467499 
	C737.431030,269.932190 737.353394,271.501434 736.772827,273.061340 
	C744.084412,269.970398 750.471130,267.065887 757.012146,264.564911 
	C763.094727,262.239197 767.113098,267.365295 765.704956,272.981476 
	C764.542419,277.617889 761.960266,282.081696 759.245972,286.108887 
	C752.923340,295.489807 743.459473,301.354767 733.945740,306.922577 
	C728.110718,310.337463 721.765808,312.717377 713.818909,312.985657 
	C726.956543,294.364685 741.799316,279.221893 761.851990,269.371429 
	C760.227051,268.521942 758.577087,267.695862 757.318604,268.097290 
	C750.674744,270.216766 743.685791,271.833740 737.643188,275.137115 
	C725.314758,281.876892 715.579468,291.903229 706.817566,302.774658 
	C704.207947,306.012512 704.069031,312.270752 696.475220,309.082611 
	C701.466187,314.371002 698.049561,318.864899 696.819458,323.609772 
	C694.943970,330.844147 692.798401,338.148132 692.199219,345.538635 
	C691.446533,354.823853 697.034729,359.872345 706.284729,360.007111 
	C716.624084,360.157776 726.029846,356.694397 734.878784,351.942261 
	C749.705627,343.979797 763.171448,334.110504 774.211609,321.235168 
	C775.368958,319.885345 776.150085,318.212952 777.105774,316.690216 
	C776.728760,316.358398 776.351746,316.026550 775.974731,315.694733 
	C774.621704,316.656830 773.141174,317.482056 771.936890,318.603912 
	C765.574951,324.530365 759.502869,330.788116 752.913269,336.445190 
	C743.607910,344.433685 732.952637,350.123322 720.917419,352.874237 
	C713.564880,354.554810 707.251526,351.761078 705.547852,345.763336 
	C704.668823,342.668701 704.389526,339.000458 705.165039,335.925781 
	C706.632629,330.107391 708.485168,324.210114 711.390015,319.024719 
	C712.420410,317.185303 716.979309,317.322479 720.655151,316.130524 
M1687.902344,249.372238 
	C1691.656250,245.176392 1695.410278,240.980545 1699.164185,236.784698 
	C1693.515259,237.631790 1688.102417,238.697876 1683.641357,241.359207 
	C1679.300049,243.949020 1675.505493,247.835388 1672.348145,251.843613 
	C1671.069702,253.466324 1672.115601,256.919891 1672.103882,259.540344 
	C1674.843628,259.075470 1678.113159,259.384369 1680.195068,257.958862 
	C1683.093262,255.974472 1685.102295,252.691406 1687.902344,249.372238 
z"/>
<path fill="#C62828" opacity="1.000000" stroke="none" 
	d="
M1011.317993,324.314636 
	C1002.818726,334.861084 994.513855,345.688934 981.766724,351.524445 
	C978.586365,352.980408 974.868469,353.719940 971.353699,353.892181 
	C964.126587,354.246399 960.617371,349.516205 962.321533,342.370392 
	C963.146484,338.911316 964.041809,335.468994 965.033569,331.506592 
	C957.876465,336.632050 951.487244,342.193237 944.235840,346.190491 
	C930.192017,353.931885 915.855652,361.213074 901.280029,367.899231 
	C887.048950,374.427338 871.783142,377.956390 856.406128,380.731720 
	C851.885803,381.547546 847.227478,381.917786 842.631775,381.923004 
	C835.355774,381.931244 831.302734,386.663086 827.162598,391.517792 
	C818.789429,401.336273 810.023132,410.753296 797.377014,415.071167 
	C794.590027,416.022736 791.357056,415.667938 788.329407,415.914734 
	C788.224426,415.280212 788.119385,414.645691 788.014343,414.011139 
	C795.460754,410.050140 803.427246,406.811493 810.209656,401.928192 
	C817.209961,396.888062 823.058472,390.248199 829.410889,384.308228 
	C829.149963,383.737091 828.889099,383.165924 828.628235,382.594788 
	C823.415283,381.725098 818.124207,381.174347 813.005005,379.921692 
	C801.022034,376.989624 790.444092,371.447815 784.099487,360.412720 
	C778.574402,350.802856 776.668030,340.400116 778.888550,329.159454 
	C781.515381,315.862152 785.405273,303.108704 791.952026,291.221161 
	C799.484314,277.544006 808.628296,265.092407 818.950867,253.318100 
	C831.458801,239.051056 845.748413,226.822861 860.570435,215.251663 
	C868.652039,208.942566 878.087158,204.363510 886.935547,199.043579 
	C888.694763,197.985886 890.561646,197.107300 892.378906,196.146103 
	C892.276367,195.629883 892.173767,195.113678 892.071228,194.597473 
	C882.609070,195.121460 872.860046,194.395065 863.757019,196.483871 
	C852.205322,199.134583 841.071594,203.799759 829.977539,208.156189 
	C825.638550,209.860001 821.675720,212.796890 817.933105,215.680374 
	C812.169189,220.121170 808.390564,225.909790 806.878601,233.258041 
	C806.473633,235.226105 804.062744,236.781418 802.572693,238.526215 
	C801.023254,236.690475 798.701294,235.088501 798.062439,232.977219 
	C795.717102,225.227249 800.196838,215.519073 807.744019,210.002960 
	C820.074646,200.990845 834.293884,196.715302 848.965210,194.173355 
	C861.068726,192.076294 873.397522,191.227859 885.650513,190.084045 
	C888.362244,189.830887 891.292297,190.274353 893.920288,191.066040 
	C902.693970,193.709137 909.630737,188.040222 917.403687,186.218811 
	C919.296387,185.775284 921.115601,185.026978 922.995361,184.517731 
	C931.442932,182.229095 933.638489,179.298370 935.085205,170.599899 
	C936.338562,163.064316 938.298340,155.639175 940.169861,148.221741 
	C940.423767,147.215271 941.980591,146.537582 943.574097,145.150711 
	C945.272583,157.916595 940.014709,168.501617 938.562988,180.108780 
	C944.688538,179.737137 950.755066,179.103668 956.825928,179.058472 
	C967.935364,178.975739 978.869568,180.029877 988.732422,185.930054 
	C996.637573,190.659088 1001.231873,197.420364 1004.312073,206.279495 
	C1007.557495,215.613495 1005.219421,224.233276 1003.691772,232.949234 
	C1002.657837,238.848602 998.899658,242.706390 990.838745,237.322464 
	C980.753296,230.586380 970.930420,223.410309 960.519287,217.223343 
	C952.120544,212.232254 943.070801,208.309601 934.162781,204.234528 
	C932.964233,203.686249 929.812866,204.568008 929.406128,205.549927 
	C922.480469,222.267807 915.845520,239.106140 909.148193,255.913589 
	C909.384033,256.081451 909.599548,256.367218 909.821350,256.372253 
	C912.109314,256.424133 914.398254,256.430634 916.686951,256.449799 
	C916.392883,259.017029 916.992615,262.277557 915.638855,264.022797 
	C911.406799,269.478699 907.126343,275.378662 901.546692,279.163391 
	C896.606384,282.514404 893.653381,286.667236 891.227539,291.519226 
	C879.266479,315.443573 865.979919,338.588745 851.088745,360.810211 
	C849.368530,363.377167 847.638062,365.937439 845.946045,368.522797 
	C845.793640,368.755737 845.889221,369.151001 845.788635,370.794250 
	C855.905273,369.729889 865.845581,369.007233 875.683044,367.577240 
	C892.637756,365.112671 908.568176,359.057648 923.925049,351.800903 
	C938.596130,344.868286 952.817505,336.895050 964.741150,325.625366 
	C968.969727,321.628754 972.473511,316.856720 976.240051,312.381317 
	C990.473022,295.469696 1006.150391,280.084442 1026.135132,270.201172 
	C1033.588135,266.515350 1042.164673,264.697968 1050.441406,263.211395 
	C1056.857666,262.058960 1063.574097,265.499847 1060.089966,275.290466 
	C1057.286499,283.168274 1051.829468,288.988251 1045.168701,293.036682 
	C1036.089111,298.555145 1032.438110,307.527466 1028.626831,316.210480 
	C1024.713745,325.125305 1022.390320,334.744202 1019.496582,344.093781 
	C1019.022827,345.624542 1018.870850,347.409973 1019.134216,348.983246 
	C1019.794556,352.927277 1022.659668,354.672516 1026.166626,352.805145 
	C1030.336914,350.584595 1034.464600,348.019196 1037.981567,344.894806 
	C1044.358398,339.229950 1050.356445,333.126587 1056.349976,327.045807 
	C1062.159302,321.151703 1067.821167,315.108826 1073.446899,309.037720 
	C1085.887085,295.612671 1097.102661,281.284149 1105.538208,264.939606 
	C1105.763550,264.502991 1105.818237,263.910034 1106.150635,263.607941 
	C1108.325439,261.631744 1109.654663,257.525482 1113.606445,259.445862 
	C1117.229980,261.206665 1116.236572,264.790619 1115.572266,267.845551 
	C1112.682495,281.133179 1106.740601,293.131470 1099.818970,304.707611 
	C1098.904419,306.236938 1098.141235,307.856689 1098.030273,310.281097 
	C1099.469482,309.235352 1100.967896,308.261536 1102.338135,307.132355 
	C1112.117676,299.073364 1121.692261,290.750946 1131.719604,283.014740 
	C1135.800415,279.866364 1140.519043,277.294312 1146.297241,277.926300 
	C1150.669312,278.404480 1153.434692,280.816589 1152.911499,285.282745 
	C1151.625488,296.259460 1146.076660,304.697845 1136.765869,310.570984 
	C1135.264404,311.518036 1133.255859,311.660828 1131.481689,312.175446 
	C1131.183472,311.793854 1130.885254,311.412262 1130.587036,311.030640 
	C1132.980347,307.251068 1135.532715,303.560455 1137.715332,299.662903 
	C1139.376831,296.695892 1141.071045,293.586060 1141.850342,290.324615 
	C1142.971069,285.634918 1140.204712,283.477020 1135.891724,285.723907 
	C1131.122925,288.208344 1126.338135,290.957855 1122.265015,294.420685 
	C1113.815063,301.604523 1105.732910,309.232819 1097.679443,316.868164 
	C1086.649780,327.325165 1079.978638,340.874634 1072.185913,353.604034 
	C1068.884277,358.997314 1065.640137,359.697357 1061.976929,355.552856 
	C1060.038330,353.359650 1060.796631,351.572327 1062.096558,349.614197 
	C1070.147827,337.485565 1078.555542,325.573517 1086.116821,313.146545 
	C1091.331177,304.576782 1095.371826,295.292755 1099.936890,286.327911 
	C1099.374756,285.990417 1098.812500,285.652924 1098.250244,285.315430 
	C1095.557861,288.652283 1092.902588,292.019989 1090.164917,295.319214 
	C1085.232300,301.263550 1080.466797,307.366058 1075.246582,313.048889 
	C1061.610840,327.892792 1048.371094,343.244202 1031.126221,354.150543 
	C1027.408325,356.501801 1022.709412,358.227509 1018.371277,358.447998 
	C1012.369080,358.753052 1007.690613,353.058716 1008.186829,345.951599 
	C1008.658936,339.190918 1010.649231,332.536224 1012.278931,325.329590 
	C1012.630554,324.396210 1012.675110,323.968140 1012.719727,323.540100 
	C1012.252441,323.798279 1011.785217,324.056458 1011.317993,324.314636 
M1014.060608,307.924561 
	C1012.724548,307.807678 1011.388428,307.690826 1010.052368,307.573944 
	C1009.919434,307.097382 1009.786499,306.620789 1009.653564,306.144196 
	C1010.828857,305.398193 1011.948669,304.540192 1013.188904,303.925262 
	C1019.017517,301.035583 1024.416626,298.235443 1028.318115,292.183533 
	C1031.748535,286.862427 1037.623901,283.044647 1042.723877,278.941254 
	C1043.622559,278.218201 1046.019165,279.357086 1048.503906,279.763794 
	C1048.595215,279.587158 1049.697144,278.213196 1049.997925,276.681915 
	C1050.376587,274.754486 1050.863159,272.073914 1049.885132,270.879242 
	C1048.967163,269.757874 1045.989014,269.471283 1044.291016,270.005219 
	C1039.810791,271.414154 1035.170288,272.890381 1031.236206,275.362396 
	C1011.881226,287.524475 995.695923,303.378937 981.094421,320.750183 
	C976.598877,326.098419 973.863159,333.047028 970.932495,339.538544 
	C969.457397,342.806152 972.117310,345.729645 975.356689,344.761841 
	C979.535278,343.513519 983.936218,342.211670 987.490967,339.818359 
	C999.396118,331.802856 1007.894836,320.528046 1016.089172,308.321442 
	C1016.188660,307.959473 1016.288208,307.597473 1016.387756,307.235504 
	C1015.878906,307.439117 1015.369995,307.642700 1014.060608,307.924561 
M889.992432,202.551071 
	C888.665771,203.144470 887.208618,203.549255 886.033447,204.361786 
	C878.227905,209.758560 870.379883,215.102921 862.738220,220.725906 
	C843.608948,234.801712 829.019714,253.043701 816.683716,273.013275 
	C808.583923,286.125153 802.798157,300.455322 800.002258,315.766144 
	C798.149902,325.909912 797.804443,336.039886 801.964478,345.802917 
	C808.590515,361.353546 822.107117,366.556793 837.334412,368.843353 
	C838.853516,369.071442 841.239075,367.541779 842.293884,366.132690 
	C846.209595,360.901764 849.691833,355.348816 853.418030,349.973053 
	C867.565430,329.562653 878.804138,307.511627 889.760803,285.314331 
	C890.668701,283.474976 890.741333,280.834320 890.273560,278.777161 
	C888.825256,272.408447 885.907837,266.114655 889.991272,259.753906 
	C891.711914,257.073608 893.372681,253.759277 895.936584,252.454987 
	C897.318909,251.751770 900.550842,254.684250 903.607605,256.331757 
	C910.747864,238.666077 918.117065,220.434067 925.928345,201.108170 
	C915.118286,199.997223 905.812073,192.414352 895.367615,199.837021 
	C893.955627,200.840530 892.151489,201.292297 889.992432,202.551071 
M989.393982,220.203339 
	C995.422485,223.048187 996.444336,222.475830 995.877991,215.909882 
	C995.173584,207.743103 990.377380,202.153442 983.734985,197.893845 
	C971.831238,190.260284 958.700073,187.594925 944.725037,187.957306 
	C936.032654,188.182693 936.026184,187.998566 932.736084,195.821457 
	C932.634644,196.062683 932.652710,196.354156 932.559875,197.014557 
	C952.306519,202.043335 971.435547,208.734314 989.393982,220.203339 
M924.856323,189.964722 
	C920.924194,190.800919 916.992004,191.637115 913.059875,192.473312 
	C913.163147,192.941605 913.266418,193.409897 913.369690,193.878189 
	C918.082336,194.323013 922.795044,194.767822 927.452148,195.207382 
	C928.477173,189.876099 928.477173,189.876099 924.856323,189.964722 
M1096.390869,310.325531 
	C1096.432495,310.606842 1096.474121,310.888153 1096.515625,311.169464 
	C1096.783081,311.125366 1097.050659,311.081299 1097.318115,311.037201 
	C1097.216309,310.696686 1097.114502,310.356140 1096.390869,310.325531 
z"/>
<path fill="#C62828" opacity="1.000000" stroke="none" 
	d="
M1245.730835,345.762634 
	C1234.058838,355.119781 1222.759155,364.372589 1211.186646,373.270599 
	C1205.547974,377.605988 1199.400269,381.279236 1193.393799,385.312195 
	C1200.890137,391.051849 1211.312500,388.288727 1217.932739,394.913971 
	C1208.624512,397.130951 1200.281982,394.723633 1192.293457,390.726959 
	C1189.607788,389.383362 1187.354614,389.285736 1184.578979,390.687714 
	C1174.900146,395.576355 1165.241821,400.566254 1155.267578,404.790131 
	C1146.706543,408.415558 1137.484863,410.027374 1128.182861,408.789734 
	C1125.629883,408.450104 1121.998047,406.157104 1121.294434,403.975616 
	C1119.574219,398.643402 1121.886719,394.711395 1126.804199,392.166748 
	C1126.662109,393.284973 1126.628662,394.205383 1126.419800,395.084015 
	C1125.041626,400.880402 1128.058960,404.334229 1134.018555,403.895538 
	C1151.686646,402.595123 1166.930664,395.116699 1181.431030,385.753906 
	C1179.307617,383.733582 1177.390259,381.909302 1175.332520,379.951447 
	C1169.060303,383.619019 1163.076050,387.727631 1156.583984,390.742218 
	C1150.141235,393.733917 1143.236938,395.790375 1136.407227,397.829285 
	C1135.303955,398.158661 1133.536011,396.261871 1132.075317,395.394135 
	C1133.547241,394.539001 1134.924194,393.384521 1136.508057,392.881653 
	C1142.670532,390.924866 1149.149536,389.750214 1155.032349,387.186981 
	C1160.971313,384.599335 1166.343506,380.710876 1172.176270,377.266907 
	C1171.103882,375.161560 1170.040771,373.331696 1169.210571,371.401642 
	C1164.663330,360.830963 1169.505615,352.611786 1176.333862,345.279022 
	C1184.854980,336.128265 1196.015381,330.950470 1207.259277,326.034546 
	C1220.913330,320.064911 1235.250488,316.560608 1249.835571,313.741882 
	C1252.286133,313.268311 1254.422485,310.394409 1256.382324,308.325012 
	C1259.944946,304.563477 1264.085083,301.007935 1266.449829,296.552094 
	C1268.661743,292.384247 1268.672485,287.098328 1270.049194,282.421448 
	C1271.151733,278.676575 1272.382568,274.808441 1274.453003,271.567932 
	C1275.768799,269.508698 1278.660156,267.505066 1280.967407,267.354767 
	C1282.589111,267.249115 1284.416870,270.306030 1286.933472,272.690643 
	C1311.060913,244.394073 1330.830933,211.889908 1351.039917,179.702179 
	C1351.565552,179.949890 1352.091187,180.197601 1352.616943,180.445312 
	C1352.513306,181.403839 1352.682495,182.506378 1352.264404,183.298965 
	C1347.004028,193.270294 1342.245239,203.572098 1336.186035,213.039307 
	C1328.690918,224.750198 1320.179565,235.818115 1311.953369,247.051178 
	C1306.043579,255.121048 1299.881836,263.006378 1293.730103,271.109100 
	C1299.740601,272.988281 1300.431274,275.137878 1295.766724,279.577515 
	C1290.409424,284.676422 1284.407227,289.108124 1278.591431,293.711182 
	C1275.123047,296.456329 1271.206055,298.684570 1267.982300,301.675171 
	C1264.740234,304.682831 1262.107422,308.347168 1259.176147,311.760284 
	C1268.343994,312.153015 1268.616577,312.399506 1274.512695,305.878235 
	C1286.895630,292.182129 1299.447876,278.591949 1311.034424,264.235046 
	C1325.144043,246.751846 1338.929321,228.936874 1351.678101,210.453735 
	C1358.539185,200.506302 1363.253174,189.002731 1368.253784,177.894196 
	C1369.703735,174.673019 1369.237427,170.331650 1368.756104,166.619614 
	C1368.550659,165.035248 1366.216553,163.508896 1364.556763,162.391785 
	C1362.868896,161.255768 1360.819946,160.655975 1358.784668,159.757553 
	C1362.296021,155.484024 1367.059814,155.241653 1373.026733,158.585159 
	C1379.793213,162.376648 1382.769531,170.100937 1381.139404,177.937500 
	C1377.472168,195.566055 1368.652710,210.638412 1358.004639,224.712265 
	C1346.527344,239.882034 1335.025269,255.075256 1322.703369,269.551239 
	C1311.951294,282.182892 1300.036865,293.824432 1288.664062,305.929810 
	C1287.902832,306.740204 1287.378784,307.773560 1286.138062,309.591797 
	C1303.180054,308.930084 1319.639648,308.291016 1336.489624,307.636780 
	C1341.573608,293.289154 1346.846069,278.721802 1351.895020,264.077393 
	C1357.381958,248.162186 1362.656982,232.173950 1368.041138,216.223221 
	C1368.354004,215.296173 1368.592651,214.161697 1369.261963,213.577866 
	C1370.412476,212.574326 1371.875488,211.928986 1373.207275,211.133240 
	C1373.784912,212.702789 1375.035645,214.378159 1374.808716,215.821167 
	C1374.228760,219.510559 1372.907227,223.076477 1372.029419,226.727158 
	C1367.256348,246.576813 1362.323608,266.391388 1357.855713,286.309906 
	C1354.885864,299.549408 1351.891357,312.854065 1350.214844,326.292633 
	C1348.602417,339.215515 1348.281738,352.345856 1348.202759,365.389923 
	C1348.173096,370.281433 1349.709595,375.518158 1351.795166,380.011169 
	C1355.271240,387.499908 1361.671143,388.633789 1369.059204,384.669556 
	C1376.463379,380.696655 1382.707520,374.513489 1389.300171,369.103912 
	C1391.449219,367.340546 1393.094727,364.963409 1394.970581,362.866913 
	C1395.457153,363.209167 1395.943726,363.551422 1396.430420,363.893677 
	C1394.948486,366.279144 1393.697388,368.851807 1391.942627,371.015961 
	C1385.972046,378.378448 1379.453003,385.450958 1370.384399,388.736725 
	C1355.066772,394.286591 1345.877197,390.414795 1335.570679,377.711578 
	C1327.972656,368.346527 1325.556763,356.992218 1327.888184,344.856445 
	C1330.003906,333.842407 1331.917358,322.789490 1333.851196,312.132080 
	C1326.490723,313.019379 1318.293091,314.214081 1310.054565,314.947876 
	C1300.021851,315.841431 1289.942017,316.210052 1279.913696,317.141571 
	C1278.010620,317.318329 1275.991699,318.769165 1274.471802,320.129852 
	C1266.218140,327.518707 1258.117798,335.078552 1249.927490,342.538727 
	C1248.716797,343.641418 1247.307861,344.526489 1245.730835,345.762634 
M1233.204346,328.066376 
	C1231.333008,328.623444 1229.339966,328.931915 1227.610474,329.778809 
	C1217.706787,334.628357 1207.435059,338.921600 1198.146240,344.766968 
	C1191.319092,349.063202 1184.803589,354.624634 1181.859497,362.777618 
	C1180.948242,365.300537 1178.357544,368.209015 1181.816406,371.098083 
	C1192.090942,363.375671 1202.333008,356.016144 1212.183716,348.165558 
	C1219.920776,341.999329 1227.174316,335.226379 1235.061890,328.358917 
	C1235.182861,327.994446 1235.303955,327.629944 1235.424927,327.265442 
	C1234.942261,327.498627 1234.459595,327.731842 1233.204346,328.066376 
M1257.174438,321.057678 
	C1249.531372,321.394470 1243.547119,325.084991 1238.210327,330.245422 
	C1235.013428,333.336670 1231.753906,336.398102 1228.265137,339.145996 
	C1216.583496,348.346832 1204.770752,357.380951 1193.041626,366.521881 
	C1189.211914,369.506439 1185.484741,372.622375 1181.334229,375.983032 
	C1183.701538,378.123718 1185.535767,379.782318 1187.884766,381.906372 
	C1213.405640,364.376465 1236.921509,344.113739 1259.079712,321.342712 
	C1259.214844,320.980927 1259.349854,320.619110 1259.484985,320.257324 
	C1258.982788,320.492767 1258.480469,320.728210 1257.174438,321.057678 
z"/>
<path fill="#C62828" opacity="1.000000" stroke="none" 
	d="
M473.015594,219.917694 
	C474.135498,217.001221 475.161072,214.456421 476.484528,211.172455 
	C465.814911,209.369537 455.606232,208.150452 445.651642,205.837738 
	C432.413666,202.762222 419.055237,202.980392 405.674347,203.020782 
	C395.676880,203.050964 385.954071,205.018661 377.265106,210.030197 
	C365.516663,216.806320 358.668091,226.790665 357.886932,240.864502 
	C357.237885,252.558624 361.965454,261.531158 369.880035,269.413452 
	C371.525787,271.052460 372.975220,272.888611 374.515106,274.633942 
	C374.190704,275.088684 373.866272,275.543457 373.541870,275.998199 
	C372.262543,275.632141 370.816315,275.534332 369.729950,274.858215 
	C359.682526,268.605042 351.431641,260.225311 348.641693,248.768860 
	C346.238617,238.901016 347.364716,228.581299 353.102753,219.310181 
	C359.329498,209.249405 368.610779,203.504013 379.446289,200.029419 
	C398.784088,193.828415 418.475647,194.928986 438.178192,197.931366 
	C450.807892,199.855911 463.420715,201.892899 476.030060,203.947433 
	C479.272430,204.475723 480.786865,202.957031 481.971008,200.131577 
	C484.534973,194.013779 487.395721,188.020355 490.962311,182.260300 
	C491.893402,190.609909 486.650482,197.328369 484.696167,205.335373 
	C490.389252,206.604050 495.691864,208.049286 501.090698,208.819702 
	C502.606140,209.035950 504.731598,207.605911 506.022125,206.357300 
	C517.083557,195.654953 527.274963,183.994507 540.634644,175.885513 
	C552.287292,168.812592 564.672485,164.238098 578.475403,166.112885 
	C588.328613,167.451218 590.973999,174.657654 588.015076,182.697083 
	C587.696106,183.563599 586.456421,184.091187 585.643799,184.776001 
	C585.096802,183.880814 584.356812,183.048721 584.039612,182.078445 
	C583.147278,179.348129 585.990845,175.018829 581.496094,173.971069 
	C576.825195,172.882217 571.400330,171.379150 567.160767,172.734238 
	C550.752686,177.978729 538.730957,189.604721 527.764099,202.385727 
	C525.041443,205.558777 522.320129,208.732941 519.598206,211.906601 
	C519.812317,212.492203 520.026367,213.077805 520.240417,213.663391 
	C535.418030,215.108887 550.573120,217.137497 565.783875,217.724991 
	C572.249878,217.974762 579.034790,215.791718 585.298584,213.626022 
	C590.396729,211.863373 593.236938,207.444260 593.030945,201.605865 
	C592.982788,200.241302 593.325562,198.862946 593.530762,197.134277 
	C598.696594,200.749023 598.991638,204.051712 596.285950,211.336472 
	C592.332092,221.981644 583.326965,224.994400 573.569275,226.973907 
	C560.636963,229.597382 548.068665,226.682007 535.487305,224.237534 
	C528.623108,222.903839 521.795532,221.369156 514.905334,220.196014 
	C513.894226,220.023819 512.262512,221.080978 511.533630,222.038193 
	C503.881622,232.086670 496.347992,242.225357 488.796295,252.350082 
	C483.610291,259.303040 478.435516,266.264435 473.287537,273.245544 
	C472.535675,274.265076 471.960785,275.415131 471.059509,276.910431 
	C497.582153,273.082611 523.348511,272.226501 548.544617,280.307159 
	C548.535645,281.128143 548.526672,281.949097 548.517700,282.770081 
	C544.226440,282.770081 539.935120,282.772186 535.643799,282.769592 
	C529.067322,282.765625 522.475159,282.469971 515.918274,282.825500 
	C507.697174,283.271362 499.351135,283.516937 491.341827,285.197083 
	C482.623444,287.026001 474.128082,290.126709 465.740448,293.227356 
	C462.076233,294.581879 460.947052,298.008759 459.043884,307.939270 
	C456.700623,304.773010 455.137482,302.660828 453.326874,300.214264 
	C449.621277,304.643341 446.025787,309.283051 442.076050,313.598450 
	C429.650574,327.174255 417.831085,341.430389 404.339172,353.862732 
	C394.450806,362.974487 382.638672,370.187347 371.066437,377.232239 
	C358.232147,385.045410 343.595337,386.455780 328.984283,384.797485 
	C320.915955,383.881805 313.834198,380.169434 310.175964,371.688995 
	C307.132019,364.632690 310.850800,359.376556 314.261780,354.470978 
	C319.224213,347.334198 327.031097,343.458801 335.178345,341.220062 
	C341.701172,339.427673 348.639313,339.146606 355.393127,338.194824 
	C355.561249,338.998230 355.729401,339.801666 355.897522,340.605072 
	C353.956665,341.069763 352.031799,341.847504 350.072327,341.947327 
	C338.923920,342.515411 329.287354,346.283844 321.740112,354.763733 
	C318.660889,358.223450 317.144775,369.606171 320.464050,372.409088 
	C323.729034,375.166077 328.309937,377.284271 332.546783,377.813171 
	C351.861938,380.224335 367.838867,371.996246 382.687469,360.803406 
	C402.857452,345.599243 418.061646,325.838196 433.029449,305.870056 
	C439.121613,297.742676 445.119751,289.544250 451.089630,281.326508 
	C452.000488,280.072723 452.525146,278.538391 453.228394,277.133820 
	C452.703949,276.708313 452.179535,276.282837 451.655090,275.857330 
	C444.233551,283.642090 436.510345,291.164856 429.465271,299.276550 
	C420.254303,309.882141 412.059692,321.397888 402.529694,331.690491 
	C394.182831,340.705292 384.936829,348.990967 375.399414,356.752625 
	C371.169373,360.195129 365.364685,361.927521 360.023926,363.665222 
	C358.002411,364.322968 355.274536,362.809753 352.868652,362.286102 
	C352.908295,361.604828 352.947937,360.923553 352.987579,360.242279 
	C354.097900,359.831512 355.229462,359.016144 356.315247,359.073120 
	C366.336182,359.598907 373.880615,354.085815 380.976379,348.364288 
	C398.437927,334.284607 411.966705,316.595459 425.126221,298.630066 
	C426.387238,296.908508 427.641815,295.152252 429.119110,293.624603 
	C434.213348,288.356720 434.045471,281.883606 434.192719,275.169037 
	C434.281769,271.107788 435.666504,266.773224 437.561737,263.129852 
	C439.922791,258.591064 442.988525,259.033356 445.312195,263.629730 
	C445.613892,264.226532 445.919556,264.821289 446.223358,265.417023 
	C446.830261,265.454437 447.437164,265.491852 448.044098,265.529266 
	C456.336487,250.449295 464.628876,235.369324 473.015594,219.917694 
M488.898560,228.347198 
	C491.556885,224.697830 494.215210,221.048462 496.898163,217.365311 
	C485.919159,210.761826 481.532837,211.639816 476.395935,221.276901 
	C468.879669,235.377747 461.441101,249.519989 453.963593,263.655579 
	C455.021790,263.924072 456.370728,264.266327 457.633453,264.586700 
	C457.917999,266.370483 458.155762,267.861084 458.529480,270.204041 
	C459.761993,268.515808 460.417694,267.621735 461.069244,266.724640 
	C470.212921,254.134583 479.356079,241.544128 488.898560,228.347198 
M454.713837,274.043365 
	C454.719543,274.287292 454.725250,274.531250 454.730988,274.775146 
	C455.008423,274.745453 455.285889,274.715729 455.563293,274.686035 
	C455.448578,274.338470 455.333862,273.990906 454.713837,274.043365 
z"/>
<path fill="#C62828" opacity="1.000000" stroke="none" 
	d="
M1436.370483,312.308655 
	C1429.160889,320.448090 1422.484741,329.158081 1414.577637,336.551514 
	C1407.915771,342.780426 1400.058105,347.857330 1392.265747,352.697266 
	C1388.333130,355.139832 1383.175415,356.309570 1378.711670,353.657623 
	C1376.651489,352.433563 1374.526123,349.754181 1374.187378,347.473724 
	C1372.858765,338.528076 1375.943481,330.340027 1379.986572,322.535828 
	C1386.583008,309.802734 1395.709229,298.937469 1406.237671,289.403961 
	C1424.408569,272.949921 1443.010010,256.260406 1467.406982,250.360443 
	C1480.007324,247.313263 1485.754883,239.461258 1492.103760,230.142288 
	C1505.937866,209.836151 1520.311890,189.895996 1534.593262,169.897629 
	C1539.094482,163.594498 1546.642700,161.139542 1557.038574,162.664841 
	C1554.666992,166.433838 1552.842651,169.933258 1550.468140,173.007812 
	C1536.437500,191.174927 1522.237671,209.211441 1508.185913,227.362366 
	C1503.269409,233.713058 1498.603027,240.257736 1493.851562,246.735168 
	C1493.484131,247.235992 1493.001709,248.024811 1493.156738,248.481552 
	C1496.283813,257.693298 1489.338745,262.875183 1484.692383,268.620453 
	C1477.484009,277.533813 1468.620239,285.235657 1462.227295,294.652008 
	C1452.452148,309.050232 1444.636841,324.715485 1440.745239,341.896179 
	C1439.975830,345.292633 1439.815552,350.182770 1441.695312,352.507263 
	C1444.549316,356.036469 1448.745605,352.751251 1451.852173,350.952057 
	C1462.095703,345.019257 1470.355225,336.760895 1478.066528,327.876495 
	C1482.398682,322.885437 1487.044189,318.166321 1491.548462,313.324615 
	C1492.162476,313.837311 1492.776489,314.350006 1493.390625,314.862701 
	C1490.615356,318.496063 1488.170654,322.451721 1485.002197,325.701752 
	C1475.918945,335.018738 1466.861084,344.408539 1457.144653,353.039612 
	C1452.399902,357.254333 1446.183105,359.442108 1439.325806,359.072327 
	C1432.122192,358.683868 1428.306641,355.136902 1427.996094,347.766724 
	C1427.553345,337.255219 1431.912231,327.945251 1435.278809,318.385345 
	C1435.819214,316.850922 1436.425171,315.339661 1437.317627,313.283203 
	C1438.050537,311.680359 1438.466919,310.612000 1438.883301,309.543671 
	C1438.669067,309.450043 1438.454834,309.356384 1438.240601,309.262756 
	C1437.617188,310.278076 1436.993896,311.293365 1436.370483,312.308655 
M1435.077393,299.980621 
	C1433.136353,299.980621 1431.195312,299.980621 1429.254395,299.980621 
	C1429.031250,299.410950 1428.808228,298.841309 1428.585205,298.271637 
	C1433.931274,295.431702 1440.181519,293.530762 1444.374023,289.493073 
	C1448.743408,285.284973 1451.127930,279.016022 1454.380249,273.648132 
	C1455.150513,273.881348 1455.920654,274.114563 1456.690918,274.347778 
	C1456.331665,277.164185 1455.972534,279.980621 1455.613281,282.797058 
	C1455.867432,282.961609 1456.121582,283.126160 1456.375732,283.290710 
	C1462.523804,274.089325 1468.671753,264.887909 1474.819824,255.686493 
	C1474.446533,255.237076 1474.073364,254.787659 1473.700195,254.338226 
	C1467.388550,257.255615 1460.889526,259.829620 1454.798462,263.151428 
	C1431.738770,275.727020 1411.092285,291.523407 1394.740112,312.150696 
	C1389.513794,318.743774 1386.412231,327.210999 1383.254028,335.183411 
	C1381.332031,340.035248 1384.657837,343.446838 1389.963867,342.904297 
	C1392.659912,342.628571 1395.471558,341.785461 1397.864258,340.510590 
	C1415.004639,331.378143 1425.752197,315.944824 1437.079712,300.335449 
	C1437.186768,299.972565 1437.293823,299.609711 1437.400757,299.246796 
	C1436.909424,299.470398 1436.418091,299.694000 1435.077393,299.980621 
z"/>
<path fill="#C72828" opacity="1.000000" stroke="none" 
	d="
M1503.659180,333.666107 
	C1504.512451,333.195465 1505.540649,332.895874 1506.192749,332.228638 
	C1516.335327,321.847656 1526.515259,311.500763 1536.506714,300.975159 
	C1544.125244,292.949371 1551.191772,284.377808 1559.090088,276.648132 
	C1563.251343,272.575592 1568.789062,270.808807 1575.007202,272.847382 
	C1578.090088,273.858124 1579.205933,275.650360 1577.959961,278.272797 
	C1575.176758,284.130371 1572.168701,289.899078 1568.918579,295.510895 
	C1566.457520,299.760559 1563.430054,303.678894 1560.763184,307.814667 
	C1559.927734,309.110657 1559.445068,310.634338 1558.800903,312.053802 
	C1559.302124,312.451691 1559.803345,312.849579 1560.304565,313.247498 
	C1569.203125,304.329834 1578.055786,295.365326 1587.053833,286.549011 
	C1588.286255,285.341431 1590.241333,284.871307 1592.151733,284.638641 
	C1596.530884,279.040436 1601.789185,277.435822 1607.004517,280.230621 
	C1604.426392,289.349640 1601.315430,298.159637 1599.541138,307.231110 
	C1597.680054,316.745941 1597.644165,326.550385 1600.156128,336.048615 
	C1602.540405,345.063782 1608.642822,347.988739 1617.703003,345.148865 
	C1619.620483,344.547821 1621.668213,344.362701 1623.656006,343.985901 
	C1623.890503,344.395355 1624.125000,344.804810 1624.359497,345.214264 
	C1623.351929,346.236664 1622.503174,347.525970 1621.309814,348.236542 
	C1615.262695,351.837219 1608.514038,352.964539 1601.761353,351.827240 
	C1595.232910,350.727692 1591.190063,345.947113 1589.086792,339.833893 
	C1584.846436,327.508636 1585.089722,314.908630 1587.394409,302.268005 
	C1588.092285,298.441071 1589.092285,294.669189 1590.183838,289.858185 
	C1581.829102,298.729492 1574.515747,307.293365 1566.346191,314.943024 
	C1558.317017,322.461395 1552.294312,332.687195 1540.442627,335.886536 
	C1544.254028,318.835663 1555.069946,305.001190 1560.364990,287.941437 
	C1559.088501,288.777405 1558.525391,289.038239 1558.097290,289.442261 
	C1545.689819,301.152588 1533.389771,312.978790 1520.867432,324.564728 
	C1512.153442,332.627106 1503.151489,340.378998 1494.247559,348.234833 
	C1491.320435,350.817291 1490.928101,356.181122 1485.634155,356.141815 
	C1484.288330,356.131836 1482.943970,355.915070 1481.598999,355.793335 
	C1481.719116,354.589111 1481.493042,353.203033 1482.014771,352.209869 
	C1485.599365,345.386841 1489.391479,338.673248 1493.020508,331.873077 
	C1500.822998,317.252228 1505.806519,301.781952 1507.037842,285.172455 
	C1507.329224,281.240265 1508.980347,278.630798 1513.434204,277.753418 
	C1519.202148,276.617157 1524.447632,274.573364 1528.949585,269.965668 
	C1532.871216,265.951874 1538.379883,263.941437 1544.475708,267.409973 
	C1545.825439,268.177979 1548.537354,266.551819 1550.622070,266.028046 
	C1550.855835,266.416168 1551.089600,266.804291 1551.323364,267.192413 
	C1549.636963,268.567596 1548.151733,270.441132 1546.224365,271.219849 
	C1541.396484,273.170319 1538.265991,276.682281 1535.591797,280.913177 
	C1524.767212,298.039246 1513.876343,315.123444 1502.713501,332.697083 
	C1502.372925,333.596100 1502.328857,334.021118 1502.284668,334.446136 
	C1502.742798,334.186127 1503.201050,333.926117 1503.659180,333.666107 
M1513.842896,290.630920 
	C1515.478638,287.939606 1517.114258,285.248322 1519.109009,281.966339 
	C1512.222534,282.595856 1512.686890,286.570831 1513.842896,290.630920 
M1558.939087,313.094879 
	C1558.627930,312.985199 1558.321777,312.850922 1558.001587,312.785431 
	C1557.933350,312.771454 1557.813965,313.007812 1557.718140,313.128845 
	C1558.022217,313.309113 1558.326294,313.489410 1558.939087,313.094879 
z"/>
<path fill="#C62828" opacity="1.000000" stroke="none" 
	d="
M1675.318359,322.314148 
	C1666.043945,330.215302 1656.887329,338.262390 1647.414062,345.917419 
	C1644.967285,347.894562 1641.641724,349.240509 1638.520264,349.843506 
	C1627.803345,351.913818 1622.110229,344.916656 1625.541382,333.996033 
	C1627.058228,329.168640 1629.140747,324.519043 1631.267578,319.301697 
	C1631.613525,318.388519 1631.658325,317.962372 1631.703003,317.536194 
	C1631.237793,317.799225 1630.772583,318.062256 1630.307373,318.325317 
	C1628.527222,319.947174 1626.746948,321.568970 1624.966797,323.190796 
	C1624.575928,322.939972 1624.185059,322.689117 1623.794312,322.438293 
	C1624.387207,320.935974 1624.672607,319.196259 1625.620361,317.967773 
	C1635.739624,304.853149 1645.984619,291.835602 1656.144897,278.752441 
	C1658.668457,275.502838 1664.721436,273.345245 1668.070068,275.351013 
	C1669.096558,275.965851 1669.663452,279.328949 1668.939575,280.524475 
	C1666.491943,284.566467 1663.518311,288.323486 1660.480591,291.968323 
	C1649.530029,305.106812 1639.511719,318.824127 1634.007935,335.242401 
	C1633.198853,337.655853 1632.812378,341.729095 1634.140625,342.941437 
	C1635.665283,344.333038 1639.708130,344.280029 1641.966553,343.285919 
	C1647.004761,341.068054 1651.979370,338.344147 1656.311768,334.968964 
	C1662.792236,329.920532 1668.442261,323.805023 1674.928223,318.764709 
	C1680.264282,314.617859 1683.303223,309.413025 1685.394043,303.215820 
	C1686.434204,300.133057 1688.074341,297.157776 1689.920288,294.460358 
	C1694.602905,287.617401 1694.179199,280.399750 1692.566406,272.784302 
	C1692.212402,271.112610 1693.551880,267.742310 1694.860840,267.280914 
	C1702.084595,264.734711 1709.508545,262.720184 1716.944458,260.843170 
	C1718.410889,260.473022 1720.231079,261.503540 1722.021973,261.919189 
	C1709.129761,283.047119 1696.569580,303.630798 1683.711914,324.694611 
	C1683.369751,325.602173 1683.325195,326.029602 1683.280640,326.457031 
	C1683.747559,326.200043 1684.214478,325.943024 1684.681396,325.685974 
	C1692.749268,317.319031 1700.461914,308.568848 1708.974121,300.681458 
	C1719.812256,290.638977 1730.910156,280.738251 1744.913940,275.058258 
	C1747.019531,274.204285 1749.266846,273.196533 1751.454590,273.182343 
	C1753.925903,273.166321 1757.324463,273.439789 1758.596069,274.995880 
	C1759.669189,276.309357 1758.872070,279.917389 1757.875854,282.024353 
	C1753.231934,291.846924 1748.287109,301.529327 1743.342163,311.206818 
	C1739.050415,319.605652 1734.614258,327.930634 1730.242065,336.288239 
	C1730.720459,336.713837 1731.198730,337.139435 1731.677124,337.565002 
	C1741.557617,329.123993 1751.438110,320.682953 1762.249512,311.446686 
	C1761.649902,313.759674 1761.698364,315.491821 1760.866455,316.491272 
	C1749.732422,329.868652 1737.209961,341.748474 1722.367432,350.972015 
	C1720.833008,351.925629 1718.587524,351.735138 1716.671997,352.075562 
	C1716.839722,350.230774 1716.571411,348.207703 1717.241455,346.568268 
	C1725.223877,327.039398 1733.349365,307.569031 1741.418457,288.075439 
	C1741.711914,287.366516 1741.810669,286.577026 1741.083252,284.783325 
	C1734.319214,289.432861 1727.105347,293.553955 1720.887939,298.845703 
	C1709.207397,308.787109 1697.567505,318.889984 1686.948486,329.924469 
	C1679.993774,337.151337 1674.882812,346.148010 1668.904297,354.321503 
	C1667.092773,356.798279 1665.969604,361.939209 1662.362183,360.102692 
	C1658.568359,358.171356 1662.026245,354.256134 1663.273682,351.459686 
	C1667.407837,342.192078 1671.734985,333.010590 1676.287109,323.310669 
	C1676.630615,322.397705 1676.675293,321.970184 1676.719971,321.542633 
	C1676.252686,321.799774 1675.785522,322.056946 1675.318359,322.314148 
z"/>
<path fill="#C72727" opacity="1.000000" stroke="none" 
	d="
M720.291260,316.343933 
	C716.979309,317.322479 712.420410,317.185303 711.390015,319.024719 
	C708.485168,324.210114 706.632629,330.107391 705.165039,335.925781 
	C704.389526,339.000458 704.668823,342.668701 705.547852,345.763336 
	C707.251526,351.761078 713.564880,354.554810 720.917419,352.874237 
	C732.952637,350.123322 743.607910,344.433685 752.913269,336.445190 
	C759.502869,330.788116 765.574951,324.530365 771.936890,318.603912 
	C773.141174,317.482056 774.621704,316.656830 775.974731,315.694733 
	C776.351746,316.026550 776.728760,316.358398 777.105774,316.690216 
	C776.150085,318.212952 775.368958,319.885345 774.211609,321.235168 
	C763.171448,334.110504 749.705627,343.979797 734.878784,351.942261 
	C726.029846,356.694397 716.624084,360.157776 706.284729,360.007111 
	C697.034729,359.872345 691.446533,354.823853 692.199219,345.538635 
	C692.798401,338.148132 694.943970,330.844147 696.819458,323.609772 
	C698.049561,318.864899 701.466187,314.371002 696.475220,309.082611 
	C704.069031,312.270752 704.207947,306.012512 706.817566,302.774658 
	C715.579468,291.903229 725.314758,281.876892 737.643188,275.137115 
	C743.685791,271.833740 750.674744,270.216766 757.318604,268.097290 
	C758.577087,267.695862 760.227051,268.521942 761.851990,269.371429 
	C741.799316,279.221893 726.956543,294.364685 713.818909,312.985657 
	C721.765808,312.717377 728.110718,310.337463 733.945740,306.922577 
	C743.459473,301.354767 752.923340,295.489807 759.245972,286.108887 
	C761.960266,282.081696 764.542419,277.617889 765.704956,272.981476 
	C767.113098,267.365295 763.094727,262.239197 757.012146,264.564911 
	C750.471130,267.065887 744.084412,269.970398 736.772827,273.061340 
	C737.353394,271.501434 737.431030,269.932190 738.187317,269.467499 
	C747.545105,263.717590 757.225037,258.949829 768.730835,261.886230 
	C772.883118,262.945923 774.817444,265.641937 775.069885,270.090057 
	C775.712097,281.406189 768.749146,288.598694 761.243713,295.046265 
	C750.472900,304.298981 738.079468,311.000519 724.448303,315.238068 
	C723.211060,315.622681 721.920776,315.837067 720.291260,316.343933 
z"/>
<path fill="#C62828" opacity="1.000000" stroke="none" 
	d="
M657.926697,271.918030 
	C656.816589,272.062439 655.706482,272.206848 653.807373,272.453888 
	C658.411377,265.051758 665.735168,264.451141 672.006287,262.221527 
	C675.164795,261.098572 678.814514,261.085541 682.245972,261.058685 
	C689.529602,261.001617 694.300476,266.751587 692.910339,273.752899 
	C691.565796,280.524475 688.056274,286.288208 683.166077,290.921600 
	C670.453613,302.966431 655.618896,311.457214 638.675842,316.136353 
	C638.370605,316.220612 638.101257,316.636871 637.832031,316.620453 
	C627.987854,316.019897 625.629211,322.955505 623.854858,330.474518 
	C623.220276,333.163544 622.312866,335.832916 622.062866,338.560089 
	C621.050964,349.596710 628.588135,355.437012 639.898254,352.589935 
	C652.211914,349.490143 662.830627,343.131287 672.336304,335.008972 
	C678.205688,329.993683 683.312866,324.094238 688.903015,318.738770 
	C690.306274,317.394440 692.251404,316.615692 693.947449,315.576996 
	C694.390869,316.095825 694.834229,316.614685 695.277649,317.133514 
	C690.769653,322.012085 686.624207,327.299500 681.678894,331.684906 
	C671.081604,341.082489 659.415100,349.117645 646.376465,354.729309 
	C637.667664,358.477448 628.571350,361.944122 618.751587,358.985077 
	C611.945251,356.934113 608.137817,350.920807 609.618774,343.965393 
	C611.417175,335.519135 614.013672,327.244019 615.865784,318.807220 
	C616.511108,315.867828 615.968689,312.667694 615.968689,309.319824 
	C619.389160,311.409729 620.820251,309.082275 622.730225,305.886566 
	C631.308960,291.532928 644.081787,281.564667 658.740234,272.673828 
	C665.612000,270.216858 671.740723,266.801361 679.196411,269.240662 
	C659.371887,279.285278 644.171326,294.068695 631.390869,312.950836 
	C633.757568,312.846741 635.236267,313.033508 636.575256,312.684387 
	C652.589355,308.508820 665.620972,299.378143 676.092163,286.979614 
	C679.666382,282.747437 681.595642,276.599274 682.760986,271.010498 
	C683.880554,265.640869 679.551453,262.500641 674.366272,264.422577 
	C668.734131,266.510223 663.394104,269.385925 657.926697,271.918030 
z"/>
<path fill="#C72727" opacity="1.000000" stroke="none" 
	d="
M561.324341,286.318909 
	C551.925476,297.338074 542.555115,308.381744 533.088501,319.342407 
	C532.019775,320.579865 530.408691,321.348877 529.049133,322.335114 
	C528.566589,321.910187 528.084045,321.485229 527.601501,321.060272 
	C529.928955,318.016724 532.224548,314.948242 534.589355,311.933929 
	C544.416992,299.407043 554.374939,286.980194 564.040527,274.329712 
	C567.001099,270.454834 568.911072,265.779114 571.856201,261.889709 
	C572.966553,260.423370 575.645386,260.144714 577.609131,259.324585 
	C578.246643,261.528717 579.693176,263.850464 579.392517,265.918213 
	C577.169006,281.212311 569.623291,294.357544 562.029175,307.455536 
	C561.568665,308.249847 561.281982,309.144989 561.711609,310.686493 
	C565.404297,307.361115 569.032471,303.960480 572.802612,300.725372 
	C581.897888,292.920776 590.566895,284.433136 601.851624,279.769501 
	C605.058533,278.444214 608.864990,278.235077 612.398926,278.223114 
	C613.587769,278.219055 615.557922,280.244476 615.854675,281.625275 
	C618.243652,292.740723 608.690735,307.490662 598.187073,311.813751 
	C597.092346,312.264343 595.651611,311.874329 593.882080,311.874329 
	C597.309509,306.218933 600.793823,301.298889 603.344788,295.934967 
	C604.768372,292.941467 606.277527,287.982941 604.851868,286.082062 
	C602.338318,282.730560 598.517639,286.168304 595.720947,287.847931 
	C591.238464,290.539978 586.684265,293.331573 582.840271,296.828430 
	C569.055725,309.368195 554.660461,321.389435 545.335266,338.033875 
	C542.064880,343.871124 538.237366,349.398010 535.010803,355.257446 
	C532.691345,359.469635 529.613647,358.314117 526.656799,356.839752 
	C523.310852,355.171417 523.839661,352.635559 525.650269,349.832977 
	C535.771301,334.166870 545.970886,318.546234 555.742676,302.663269 
	C558.521851,298.145996 559.960327,292.803833 562.312317,287.316772 
	C562.722046,286.084900 562.833069,285.376221 563.056274,283.951263 
	C562.177917,285.151978 561.751160,285.735443 561.324341,286.318909 
M559.246094,311.996490 
	C559.665649,311.804413 560.085205,311.612335 560.504761,311.420258 
	C560.119019,311.398346 559.733276,311.376404 559.246094,311.996490 
z"/>
<path fill="#C62727" opacity="1.000000" stroke="none" 
	d="
M1687.697021,249.668213 
	C1685.102295,252.691406 1683.093262,255.974472 1680.195068,257.958862 
	C1678.113159,259.384369 1674.843628,259.075470 1672.103882,259.540344 
	C1672.115601,256.919891 1671.069702,253.466324 1672.348145,251.843613 
	C1675.505493,247.835388 1679.300049,243.949020 1683.641357,241.359207 
	C1688.102417,238.697876 1693.515259,237.631790 1699.164185,236.784698 
	C1695.410278,240.980545 1691.656250,245.176392 1687.697021,249.668213 
z"/>
<path fill="#000000" opacity="1.000000" stroke="none" 
	d="
M890.260681,202.275299 
	C892.151489,201.292297 893.955627,200.840530 895.367615,199.837021 
	C905.812073,192.414352 915.118286,199.997223 925.928345,201.108170 
	C918.117065,220.434067 910.747864,238.666077 903.607605,256.331757 
	C900.550842,254.684250 897.318909,251.751770 895.936584,252.454987 
	C893.372681,253.759277 891.711914,257.073608 889.991272,259.753906 
	C885.907837,266.114655 888.825256,272.408447 890.273560,278.777161 
	C890.741333,280.834320 890.668701,283.474976 889.760803,285.314331 
	C878.804138,307.511627 867.565430,329.562653 853.418030,349.973053 
	C849.691833,355.348816 846.209595,360.901764 842.293884,366.132690 
	C841.239075,367.541779 838.853516,369.071442 837.334412,368.843353 
	C822.107117,366.556793 808.590515,361.353546 801.964478,345.802917 
	C797.804443,336.039886 798.149902,325.909912 800.002258,315.766144 
	C802.798157,300.455322 808.583923,286.125153 816.683716,273.013275 
	C829.019714,253.043701 843.608948,234.801712 862.738220,220.725906 
	C870.379883,215.102921 878.227905,209.758560 886.033447,204.361786 
	C887.208618,203.549255 888.665771,203.144470 890.260681,202.275299 
z"/>
<path fill="#000000" opacity="1.000000" stroke="none" 
	d="
M1015.675781,308.682648 
	C1007.894836,320.528046 999.396118,331.802856 987.490967,339.818359 
	C983.936218,342.211670 979.535278,343.513519 975.356689,344.761841 
	C972.117310,345.729645 969.457397,342.806152 970.932495,339.538544 
	C973.863159,333.047028 976.598877,326.098419 981.094421,320.750183 
	C995.695923,303.378937 1011.881226,287.524475 1031.236206,275.362396 
	C1035.170288,272.890381 1039.810791,271.414154 1044.291016,270.005219 
	C1045.989014,269.471283 1048.967163,269.757874 1049.885132,270.879242 
	C1050.863159,272.073914 1050.376587,274.754486 1049.997925,276.681915 
	C1049.697144,278.213196 1048.595215,279.587158 1048.503906,279.763794 
	C1046.019165,279.357086 1043.622559,278.218201 1042.723877,278.941254 
	C1037.623901,283.044647 1031.748535,286.862427 1028.318115,292.183533 
	C1024.416626,298.235443 1019.017517,301.035583 1013.188904,303.925262 
	C1011.948669,304.540192 1010.828857,305.398193 1009.653564,306.144196 
	C1009.786499,306.620789 1009.919434,307.097382 1010.052368,307.573944 
	C1011.388428,307.690826 1012.724548,307.807678 1014.664246,308.094788 
	C1015.403870,308.404205 1015.539856,308.543427 1015.675781,308.682648 
z"/>
<path fill="#000000" opacity="1.000000" stroke="none" 
	d="
M989.036865,220.078094 
	C971.435547,208.734314 952.306519,202.043335 932.559875,197.014557 
	C932.652710,196.354156 932.634644,196.062683 932.736084,195.821457 
	C936.026184,187.998566 936.032654,188.182693 944.725037,187.957306 
	C958.700073,187.594925 971.831238,190.260284 983.734985,197.893845 
	C990.377380,202.153442 995.173584,207.743103 995.877991,215.909882 
	C996.444336,222.475830 995.422485,223.048187 989.036865,220.078094 
z"/>
<path fill="#000000" opacity="1.000000" stroke="none" 
	d="
M925.241821,189.877869 
	C928.477173,189.876099 928.477173,189.876099 927.452148,195.207382 
	C922.795044,194.767822 918.082336,194.323013 913.369690,193.878189 
	C913.266418,193.409897 913.163147,192.941605 913.059875,192.473312 
	C916.992004,191.637115 920.924194,190.800919 925.241821,189.877869 
z"/>
<path fill="#000000" opacity="1.000000" stroke="none" 
	d="
M1011.509644,324.503510 
	C1011.785217,324.056458 1012.252441,323.798279 1012.719727,323.540100 
	C1012.675110,323.968140 1012.630554,324.396210 1012.335449,324.946899 
	C1011.957092,324.943848 1011.829163,324.818115 1011.509644,324.503510 
z"/>
<path fill="#000000" opacity="1.000000" stroke="none" 
	d="
M1096.701782,310.170563 
	C1097.114502,310.356140 1097.216309,310.696686 1097.318115,311.037201 
	C1097.050659,311.081299 1096.783081,311.125366 1096.515625,311.169464 
	C1096.474121,310.888153 1096.432495,310.606842 1096.701782,310.170563 
z"/>
<path fill="#000000" opacity="1.000000" stroke="none" 
	d="
M1015.064514,308.055664 
	C1015.369995,307.642700 1015.878906,307.439117 1016.387695,307.235474 
	C1016.288208,307.597473 1016.188660,307.959473 1015.882446,308.502045 
	C1015.539856,308.543427 1015.403870,308.404205 1015.064514,308.055664 
z"/>
<path fill="#000000" opacity="1.000000" stroke="none" 
	d="
M1258.648804,321.717072 
	C1236.921509,344.113739 1213.405640,364.376465 1187.884766,381.906372 
	C1185.535767,379.782318 1183.701538,378.123718 1181.334229,375.983032 
	C1185.484741,372.622375 1189.211914,369.506439 1193.041626,366.521881 
	C1204.770752,357.380951 1216.583496,348.346832 1228.265137,339.145996 
	C1231.753906,336.398102 1235.013428,333.336670 1238.210327,330.245422 
	C1243.547119,325.084991 1249.531372,321.394470 1257.743408,321.199524 
	C1258.424561,321.466583 1258.536621,321.591827 1258.648804,321.717072 
z"/>
<path fill="#000000" opacity="1.000000" stroke="none" 
	d="
M1234.642700,328.722900 
	C1227.174316,335.226379 1219.920776,341.999329 1212.183716,348.165558 
	C1202.333008,356.016144 1192.090942,363.375671 1181.816406,371.098083 
	C1178.357544,368.209015 1180.948242,365.300537 1181.859497,362.777618 
	C1184.803589,354.624634 1191.319092,349.063202 1198.146240,344.766968 
	C1207.435059,338.921600 1217.706787,334.628357 1227.610474,329.778809 
	C1229.339966,328.931915 1231.333008,328.623444 1233.756348,328.205811 
	C1234.419922,328.471100 1234.531250,328.597015 1234.642700,328.722900 
z"/>
<path fill="#000000" opacity="1.000000" stroke="none" 
	d="
M1258.145264,321.152527 
	C1258.480469,320.728210 1258.982788,320.492767 1259.484985,320.257324 
	C1259.349854,320.619110 1259.214844,320.980927 1258.864258,321.529907 
	C1258.536621,321.591827 1258.424561,321.466583 1258.145264,321.152527 
z"/>
<path fill="#000000" opacity="1.000000" stroke="none" 
	d="
M1234.142700,328.155151 
	C1234.459595,327.731842 1234.942261,327.498627 1235.425049,327.265442 
	C1235.303955,327.629944 1235.182861,327.994446 1234.852295,328.540894 
	C1234.531250,328.597015 1234.419922,328.471100 1234.142700,328.155151 
z"/>
<path fill="#000000" opacity="1.000000" stroke="none" 
	d="
M488.698975,228.650482 
	C479.356079,241.544128 470.212921,254.134583 461.069244,266.724640 
	C460.417694,267.621735 459.761993,268.515808 458.529480,270.204041 
	C458.155762,267.861084 457.917999,266.370483 457.633453,264.586700 
	C456.370728,264.266327 455.021790,263.924072 453.963593,263.655579 
	C461.441101,249.519989 468.879669,235.377747 476.395935,221.276901 
	C481.532837,211.639816 485.919159,210.761826 496.898163,217.365311 
	C494.215210,221.048462 491.556885,224.697830 488.698975,228.650482 
z"/>
<path fill="#000000" opacity="1.000000" stroke="none" 
	d="
M454.966492,273.843323 
	C455.333862,273.990906 455.448578,274.338470 455.563293,274.686035 
	C455.285889,274.715729 455.008423,274.745453 454.730957,274.775146 
	C454.725250,274.531250 454.719543,274.287292 454.966492,273.843323 
z"/>
<path fill="#000000" opacity="1.000000" stroke="none" 
	d="
M1436.666382,300.700684 
	C1425.752197,315.944824 1415.004639,331.378143 1397.864258,340.510590 
	C1395.471558,341.785461 1392.659912,342.628571 1389.963867,342.904297 
	C1384.657837,343.446838 1381.332031,340.035248 1383.254028,335.183411 
	C1386.412231,327.210999 1389.513794,318.743774 1394.740112,312.150696 
	C1411.092285,291.523407 1431.738770,275.727020 1454.798462,263.151428 
	C1460.889526,259.829620 1467.388550,257.255615 1473.700195,254.338226 
	C1474.073364,254.787659 1474.446533,255.237076 1474.819824,255.686493 
	C1468.671753,264.887909 1462.523804,274.089325 1456.375732,283.290710 
	C1456.121582,283.126160 1455.867432,282.961609 1455.613281,282.797058 
	C1455.972534,279.980621 1456.331665,277.164185 1456.690918,274.347778 
	C1455.920654,274.114563 1455.150513,273.881348 1454.380249,273.648132 
	C1451.127930,279.016022 1448.743408,285.284973 1444.374023,289.493073 
	C1440.181519,293.530762 1433.931274,295.431702 1428.585205,298.271637 
	C1428.808228,298.841309 1429.031250,299.410950 1429.254395,299.980621 
	C1431.195312,299.980621 1433.136353,299.980621 1435.686890,300.145020 
	C1436.419800,300.439850 1436.543091,300.570282 1436.666382,300.700684 
z"/>
<path fill="#000000" opacity="1.000000" stroke="none" 
	d="
M1436.544678,312.496735 
	C1436.993896,311.293365 1437.617188,310.278076 1438.240601,309.262756 
	C1438.454834,309.356384 1438.669067,309.450043 1438.883301,309.543671 
	C1438.466919,310.612000 1438.050537,311.680359 1437.352783,312.903015 
	C1436.953735,312.933105 1436.836304,312.808960 1436.544678,312.496735 
z"/>
<path fill="#000000" opacity="1.000000" stroke="none" 
	d="
M1436.111572,300.113525 
	C1436.418091,299.694000 1436.909424,299.470398 1437.400757,299.246826 
	C1437.293823,299.609711 1437.186768,299.972565 1436.873047,300.518066 
	C1436.543091,300.570282 1436.419800,300.439850 1436.111572,300.113525 
z"/>
<path fill="#000000" opacity="1.000000" stroke="none" 
	d="
M1513.535034,290.609863 
	C1512.686890,286.570831 1512.222534,282.595856 1519.109009,281.966339 
	C1517.114258,285.248322 1515.478638,287.939606 1513.535034,290.609863 
z"/>
<path fill="#000000" opacity="1.000000" stroke="none" 
	d="
M1503.473389,333.481476 
	C1503.201050,333.926117 1502.742798,334.186127 1502.284668,334.446136 
	C1502.328857,334.021118 1502.372925,333.596100 1502.665527,333.050323 
	C1503.038574,333.051971 1503.163086,333.174408 1503.473389,333.481476 
z"/>
<path fill="#000000" opacity="1.000000" stroke="none" 
	d="
M1558.784668,313.382294 
	C1558.326294,313.489410 1558.022217,313.309113 1557.718140,313.128845 
	C1557.813965,313.007812 1557.933350,312.771454 1558.001587,312.785431 
	C1558.321777,312.850922 1558.627930,312.985199 1558.784668,313.382294 
z"/>
<path fill="#000000" opacity="1.000000" stroke="none" 
	d="
M1684.489868,325.496826 
	C1684.214478,325.943024 1683.747559,326.200043 1683.280640,326.457031 
	C1683.325195,326.029602 1683.369751,325.602173 1683.664429,325.052338 
	C1684.042480,325.055847 1684.170410,325.181763 1684.489868,325.496826 
z"/>
<path fill="#000000" opacity="1.000000" stroke="none" 
	d="
M1675.510010,322.503296 
	C1675.785522,322.056946 1676.252686,321.799774 1676.719971,321.542633 
	C1676.675293,321.970184 1676.630615,322.397705 1676.335693,322.947662 
	C1675.957397,322.944183 1675.829468,322.818298 1675.510010,322.503296 
z"/>
<path fill="#000000" opacity="1.000000" stroke="none" 
	d="
M1630.496338,318.507080 
	C1630.772583,318.062256 1631.237793,317.799225 1631.703003,317.536194 
	C1631.658325,317.962372 1631.613525,318.388519 1631.316406,318.933136 
	C1630.937866,318.930695 1630.811646,318.809784 1630.496338,318.507080 
z"/>
<path fill="#000000" opacity="1.000000" stroke="none" 
	d="
M658.115234,272.099243 
	C663.394104,269.385925 668.734131,266.510223 674.366272,264.422577 
	C679.551453,262.500641 683.880554,265.640869 682.760986,271.010498 
	C681.595642,276.599274 679.666382,282.747437 676.092163,286.979614 
	C665.620972,299.378143 652.589355,308.508820 636.575256,312.684387 
	C635.236267,313.033508 633.757568,312.846741 631.390869,312.950836 
	C644.171326,294.068695 659.371887,279.285278 679.196411,269.240662 
	C671.740723,266.801361 665.612000,270.216858 658.965698,272.409668 
	C658.557434,272.519836 658.430603,272.400146 658.115234,272.099243 
z"/>
<path fill="#000000" opacity="1.000000" stroke="none" 
	d="
M561.514648,286.506653 
	C561.751160,285.735443 562.177917,285.151978 563.056274,283.951263 
	C562.833069,285.376221 562.722046,286.084900 562.348267,286.931641 
	C561.958740,286.944580 561.831848,286.819458 561.514648,286.506653 
z"/>
<path fill="#000000" opacity="1.000000" stroke="none" 
	d="
M559.296814,311.675476 
	C559.733276,311.376404 560.119019,311.398346 560.504761,311.420258 
	C560.085205,311.612335 559.665649,311.804413 559.296814,311.675476 
z"/>
</svg>